<svg width="195" height="114" viewBox="0 0 195 114" fill="none" xmlns="http://www.w3.org/2000/svg">
<path d="M2.125 16.6875C3.10417 16.7292 3.95833 16.7604 4.6875 16.7812C5.41667 16.7812 6.14583 16.7812 6.875 16.7812C8.70833 16.7812 10.25 16.7812 11.5 16.7812C12.7708 16.7604 13.8333 16.75 14.6875 16.75C15.5625 16.7292 16.2812 16.7188 16.8438 16.7188C17.4271 16.6979 17.9688 16.6875 18.4688 16.6875V19.7812H16.9375C16 19.7812 15.2708 19.8333 14.75 19.9375C14.2292 20.0417 13.8438 20.1979 13.5938 20.4062C13.3646 20.5938 13.2292 20.8229 13.1875 21.0938C13.1458 21.3646 13.125 21.6562 13.125 21.9688V51.9375C13.125 52.3333 13.1458 52.6562 13.1875 52.9062C13.2292 53.1562 13.3646 53.3542 13.5938 53.5C13.8229 53.6458 14.1979 53.75 14.7188 53.8125C15.2396 53.875 15.9792 53.9062 16.9375 53.9062H18.4688V57C17.8229 57 17.1979 57 16.5938 57C16.0104 56.9792 15.3958 56.9688 14.75 56.9688C14.125 56.9688 13.4479 56.9688 12.7188 56.9688C11.9896 56.9479 11.1667 56.9375 10.25 56.9375C8.58333 56.9375 7.11458 56.9479 5.84375 56.9688C4.59375 56.9896 3.35417 57 2.125 57V53.9062H3.625C4.58333 53.9062 5.3125 53.8542 5.8125 53.75C6.33333 53.6458 6.70833 53.5 6.9375 53.3125C7.1875 53.1042 7.33333 52.8646 7.375 52.5938C7.41667 52.3229 7.4375 52.0312 7.4375 51.7188V22.1875C7.4375 21.7292 7.40625 21.3438 7.34375 21.0312C7.30208 20.7188 7.15625 20.4688 6.90625 20.2812C6.67708 20.0938 6.30208 19.9688 5.78125 19.9062C5.28125 19.8229 4.5625 19.7812 3.625 19.7812H2.125V16.6875Z" fill="black"/>
<path d="M56.2188 40.8906H50.7344C50.7031 40.5469 50.6719 40.2188 50.6406 39.9062C50.6406 39.5938 50.6406 39.2812 50.6406 38.9688C50.5781 37.3438 50.1875 35.875 49.4688 34.5625C48.75 33.25 47.7344 32.1406 46.4219 31.2344C45.1406 30.3281 43.6094 29.625 41.8281 29.125C40.0469 28.625 38.0625 28.375 35.875 28.375C33.9062 28.375 32.125 28.625 30.5312 29.125C28.9688 29.5938 27.6406 30.2656 26.5469 31.1406C25.4531 32.0156 24.6094 33.0625 24.0156 34.2812C23.4531 35.4688 23.1719 36.7656 23.1719 38.1719C23.1719 39.6719 23.4688 40.9688 24.0625 42.0625C24.6562 43.1562 25.4688 44.125 26.5 44.9688C27.5312 45.8125 28.75 46.5625 30.1562 47.2188C31.5938 47.8438 33.1406 48.4531 34.7969 49.0469C36.4531 49.6094 38.2031 50.1875 40.0469 50.7812C41.8906 51.375 43.75 52.0156 45.625 52.7031C47.5625 53.4531 49.3281 54.3125 50.9219 55.2812C52.5469 56.2188 53.9375 57.3281 55.0938 58.6094C56.25 59.8906 57.1406 61.3594 57.7656 63.0156C58.4219 64.6406 58.75 66.5156 58.75 68.6406C58.75 71.1094 58.2656 73.4062 57.2969 75.5312C56.3594 77.6562 55.0156 79.5156 53.2656 81.1094C51.5469 82.6719 49.4531 83.9062 46.9844 84.8125C44.5469 85.6875 41.8281 86.125 38.8281 86.125C34.6094 86.125 30.9688 85.5469 27.9062 84.3906C24.875 83.2031 22.5312 81.5781 20.875 79.5156V85H14.6875V65.875H20.3125C20.3125 68.125 20.6094 70.1719 21.2031 72.0156C21.7969 73.8594 22.7344 75.4375 24.0156 76.75C25.2969 78.0625 26.9375 79.0781 28.9375 79.7969C30.9688 80.5156 33.4062 80.875 36.25 80.875C38.3125 80.875 40.2031 80.6094 41.9219 80.0781C43.6406 79.5469 45.1094 78.7969 46.3281 77.8281C47.5781 76.8281 48.5469 75.6406 49.2344 74.2656C49.9219 72.8594 50.2656 71.2969 50.2656 69.5781C50.2656 67.3281 49.6562 65.5 48.4375 64.0938C47.2188 62.6562 45.6094 61.4375 43.6094 60.4375C41.6094 59.4375 39.3281 58.5469 36.7656 57.7656C34.2344 56.9531 31.6562 56.0469 29.0312 55.0469C26.7188 54.1719 24.6875 53.2344 22.9375 52.2344C21.1875 51.2031 19.7188 50.0625 18.5312 48.8125C17.375 47.5625 16.5 46.1562 15.9062 44.5938C15.3125 43.0312 15.0156 41.2656 15.0156 39.2969C15.0156 37.0781 15.4531 35 16.3281 33.0625C17.2031 31.125 18.4688 29.4531 20.125 28.0469C21.7812 26.6094 23.7969 25.4844 26.1719 24.6719C28.5469 23.8281 31.2344 23.4062 34.2344 23.4062C35.7656 23.4062 37.2344 23.4844 38.6406 23.6406C40.0781 23.7969 41.4531 24.0781 42.7656 24.4844C44.1094 24.8594 45.4062 25.3906 46.6562 26.0781C47.9062 26.7344 49.1562 27.5937 50.4062 28.6562V24.7656C51.1562 24.7656 52.0625 24.7812 53.125 24.8125C54.1875 24.8125 55.2188 24.8125 56.2188 24.8125V40.8906Z" fill="#2DA0D1"/>
<path d="M46.4688 54.6875C46.4688 54.6875 46.7083 54.6979 47.1875 54.7188C47.6875 54.7188 48.3229 54.7188 49.0938 54.7188C49.8854 54.7188 50.7604 54.7292 51.7188 54.75C52.6771 54.75 53.6146 54.75 54.5312 54.75C55.4688 54.75 56.3229 54.75 57.0938 54.75C57.8854 54.75 58.5104 54.75 58.9688 54.75H71.0312C71.7396 54.75 72.5625 54.75 73.5 54.75C74.4583 54.7292 75.4271 54.7188 76.4062 54.7188C77.3854 54.7188 78.3333 54.7188 79.25 54.7188C80.1875 54.6979 81.0104 54.6875 81.7188 54.6875V66.75H78.4062V60.3125C78.4062 59.875 78.375 59.5208 78.3125 59.25C78.25 58.9792 78.0521 58.7708 77.7188 58.625C77.4062 58.4792 76.9062 58.3854 76.2188 58.3438C75.5312 58.2812 74.5625 58.25 73.3125 58.25H67V90.0938C67 90.4479 67.0208 90.7396 67.0625 90.9688C67.1042 91.1979 67.25 91.3854 67.5 91.5312C67.75 91.6562 68.1354 91.75 68.6562 91.8125C69.1771 91.875 69.9167 91.9062 70.875 91.9062H72.625V95C72.0208 95 71.4271 95 70.8438 95C70.2604 95 69.6458 95 69 95C68.375 95 67.6979 95 66.9688 95C66.2604 94.9792 65.4688 94.9583 64.5938 94.9375C64.5104 94.9375 64.2812 94.9375 63.9062 94.9375C63.5312 94.9375 63.0729 94.9479 62.5312 94.9688C62.0104 94.9688 61.4271 94.9688 60.7812 94.9688C60.1562 94.9688 59.5208 94.9792 58.875 95C58.25 95 57.6562 95 57.0938 95C56.5312 95 56.0625 95 55.6875 95V91.9062H57.4062C58.3854 91.9062 59.1354 91.8542 59.6562 91.75C60.1979 91.625 60.5833 91.4688 60.8125 91.2812C61.0625 91.0729 61.2083 90.8438 61.25 90.5938C61.2917 90.3229 61.3125 90.0417 61.3125 89.75V58.25H54.5312C53.3646 58.25 52.4583 58.2917 51.8125 58.375C51.1667 58.4375 50.6875 58.5417 50.375 58.6875C50.0625 58.8125 49.875 58.9896 49.8125 59.2188C49.75 59.4271 49.7188 59.6771 49.7188 59.9688C49.7188 60.4479 49.7188 60.9792 49.7188 61.5625C49.7188 62.125 49.7188 62.7083 49.7188 63.3125C49.7396 63.9167 49.75 64.5208 49.75 65.125C49.75 65.7083 49.75 66.25 49.75 66.75H46.4688V54.6875Z" fill="black"/>
<path d="M84.1191 83.6621C84.1191 83.6621 84.1689 83.7939 84.2686 84.0576C84.3682 84.3213 84.5 84.6699 84.6641 85.1035C84.8281 85.5371 85.0156 86.0322 85.2266 86.5889C85.4434 87.1396 85.6602 87.708 85.877 88.2939C86.0996 88.874 86.3164 89.4424 86.5273 89.999C86.7441 90.5557 86.9375 91.0566 87.1074 91.502C87.2773 91.9414 87.415 92.3018 87.5205 92.583C87.626 92.8584 87.6816 93.0049 87.6875 93.0225C87.793 93.2979 87.8779 93.5117 87.9424 93.6641C88.0127 93.8105 88.0977 93.9189 88.1973 93.9893C88.2969 94.0596 88.4316 94.1035 88.6016 94.1211C88.7773 94.1328 89.0234 94.1387 89.3398 94.1387V95C89.0117 95 88.6865 94.9971 88.3643 94.9912C88.042 94.9854 87.708 94.9824 87.3623 94.9824C87.1748 94.9824 86.9932 94.9824 86.8174 94.9824C86.6416 94.9824 86.46 94.9824 86.2725 94.9824C86.085 94.9824 85.8857 94.9854 85.6748 94.9912C85.4639 94.9912 85.2266 94.9941 84.9629 95C84.9629 94.9531 84.96 94.8828 84.9541 94.7891C84.9541 94.6895 84.9541 94.5928 84.9541 94.499V94.1562C85.2236 94.1562 85.4434 94.1562 85.6133 94.1562C85.7832 94.1504 85.918 94.1416 86.0176 94.1299C86.1172 94.1123 86.1846 94.0889 86.2197 94.0596C86.2607 94.0244 86.2812 93.9775 86.2812 93.9189C86.2695 93.8896 86.2607 93.8516 86.2549 93.8047C86.249 93.7578 86.2373 93.7021 86.2197 93.6377L85.2881 90.8428H80.6914C80.6855 90.8545 80.6592 90.9307 80.6123 91.0713C80.5654 91.2061 80.5068 91.376 80.4365 91.5811C80.3662 91.7803 80.29 91.9971 80.208 92.2314C80.126 92.4658 80.0469 92.6855 79.9707 92.8906C79.9004 93.0898 79.8418 93.2598 79.7949 93.4004C79.748 93.5352 79.7246 93.6055 79.7246 93.6113C79.666 93.7578 79.6367 93.8633 79.6367 93.9277C79.6367 94.0391 79.6953 94.1064 79.8125 94.1299C79.9355 94.1533 80.1377 94.165 80.4189 94.165H81.0518V95C80.7236 95 80.3955 94.9971 80.0674 94.9912C79.7451 94.9854 79.417 94.9824 79.083 94.9824C78.9072 94.9824 78.7373 94.9824 78.5732 94.9824C78.415 94.9824 78.251 94.9824 78.0811 94.9824C77.9111 94.9824 77.7295 94.9854 77.5361 94.9912C77.3486 94.9912 77.1377 94.9941 76.9033 95V94.1299C77.1963 94.124 77.4248 94.1182 77.5889 94.1123C77.7588 94.1064 77.8906 94.083 77.9844 94.042C78.0781 94.001 78.1484 93.9395 78.1953 93.8574C78.248 93.7754 78.3037 93.6553 78.3623 93.4971C78.3682 93.4795 78.4033 93.3857 78.4678 93.2158C78.5381 93.04 78.626 92.8115 78.7314 92.5303C78.8428 92.249 78.9688 91.9238 79.1094 91.5547C79.25 91.1797 79.3994 90.7842 79.5576 90.3682C79.7217 89.9521 79.8857 89.5273 80.0498 89.0938C80.2197 88.6543 80.3838 88.2266 80.542 87.8105C80.7002 87.3945 80.8496 87.002 80.9902 86.6328C81.1367 86.2578 81.2627 85.9297 81.3682 85.6484C81.4795 85.3672 81.5674 85.1416 81.6318 84.9717C81.6963 84.7959 81.7314 84.6992 81.7373 84.6816L82.0889 83.6621H84.1191ZM81.0254 89.9551H84.9629L82.9941 84.4883L81.0254 89.9551ZM97.8301 86.7295H96.8018C96.7959 86.665 96.79 86.6035 96.7842 86.5449C96.7842 86.4863 96.7842 86.4277 96.7842 86.3691C96.7725 86.0645 96.6992 85.7891 96.5645 85.543C96.4297 85.2969 96.2393 85.0889 95.9932 84.9189C95.7529 84.749 95.4658 84.6172 95.1318 84.5234C94.7979 84.4297 94.4258 84.3828 94.0156 84.3828C93.6465 84.3828 93.3125 84.4297 93.0137 84.5234C92.7207 84.6113 92.4717 84.7373 92.2666 84.9014C92.0615 85.0654 91.9033 85.2617 91.792 85.4902C91.6865 85.7129 91.6338 85.9561 91.6338 86.2197C91.6338 86.501 91.6895 86.7441 91.8008 86.9492C91.9121 87.1543 92.0645 87.3359 92.2578 87.4941C92.4512 87.6523 92.6797 87.793 92.9434 87.916C93.2129 88.0332 93.5029 88.1475 93.8135 88.2588C94.124 88.3643 94.4521 88.4727 94.7979 88.584C95.1436 88.6953 95.4922 88.8154 95.8438 88.9443C96.207 89.085 96.5381 89.2461 96.8369 89.4277C97.1416 89.6035 97.4023 89.8115 97.6191 90.0518C97.8359 90.292 98.0029 90.5674 98.1201 90.8779C98.2432 91.1826 98.3047 91.5342 98.3047 91.9326C98.3047 92.3955 98.2139 92.8262 98.0322 93.2246C97.8564 93.623 97.6045 93.9717 97.2764 94.2705C96.9541 94.5635 96.5615 94.7949 96.0986 94.9648C95.6416 95.1289 95.1318 95.2109 94.5693 95.2109C93.7783 95.2109 93.0957 95.1025 92.5215 94.8857C91.9531 94.6631 91.5137 94.3584 91.2031 93.9717V95H90.043V91.4141H91.0977C91.0977 91.8359 91.1533 92.2197 91.2646 92.5654C91.376 92.9111 91.5518 93.207 91.792 93.4531C92.0322 93.6992 92.3398 93.8896 92.7148 94.0244C93.0957 94.1592 93.5527 94.2266 94.0859 94.2266C94.4727 94.2266 94.8271 94.1768 95.1494 94.0771C95.4717 93.9775 95.7471 93.8369 95.9756 93.6553C96.21 93.4678 96.3916 93.2451 96.5205 92.9873C96.6494 92.7236 96.7139 92.4307 96.7139 92.1084C96.7139 91.6865 96.5996 91.3438 96.3711 91.0801C96.1426 90.8105 95.8408 90.582 95.4658 90.3945C95.0908 90.207 94.6631 90.04 94.1826 89.8936C93.708 89.7412 93.2246 89.5713 92.7324 89.3838C92.2988 89.2197 91.918 89.0439 91.5898 88.8564C91.2617 88.6631 90.9863 88.4492 90.7637 88.2148C90.5469 87.9805 90.3828 87.7168 90.2715 87.4238C90.1602 87.1309 90.1045 86.7998 90.1045 86.4307C90.1045 86.0146 90.1865 85.625 90.3506 85.2617C90.5146 84.8984 90.752 84.585 91.0625 84.3213C91.373 84.0518 91.751 83.8408 92.1963 83.6885C92.6416 83.5303 93.1455 83.4512 93.708 83.4512C93.9951 83.4512 94.2705 83.4658 94.5342 83.4951C94.8037 83.5244 95.0615 83.5771 95.3076 83.6533C95.5596 83.7236 95.8027 83.8232 96.0371 83.9521C96.2715 84.0752 96.5059 84.2363 96.7402 84.4355V83.7061C96.8809 83.7061 97.0508 83.709 97.25 83.7148C97.4492 83.7148 97.6426 83.7148 97.8301 83.7148V86.7295ZM107.814 86.7295H106.786C106.78 86.665 106.774 86.6035 106.769 86.5449C106.769 86.4863 106.769 86.4277 106.769 86.3691C106.757 86.0645 106.684 85.7891 106.549 85.543C106.414 85.2969 106.224 85.0889 105.978 84.9189C105.737 84.749 105.45 84.6172 105.116 84.5234C104.782 84.4297 104.41 84.3828 104 84.3828C103.631 84.3828 103.297 84.4297 102.998 84.5234C102.705 84.6113 102.456 84.7373 102.251 84.9014C102.046 85.0654 101.888 85.2617 101.776 85.4902C101.671 85.7129 101.618 85.9561 101.618 86.2197C101.618 86.501 101.674 86.7441 101.785 86.9492C101.896 87.1543 102.049 87.3359 102.242 87.4941C102.436 87.6523 102.664 87.793 102.928 87.916C103.197 88.0332 103.487 88.1475 103.798 88.2588C104.108 88.3643 104.437 88.4727 104.782 88.584C105.128 88.6953 105.477 88.8154 105.828 88.9443C106.191 89.085 106.522 89.2461 106.821 89.4277C107.126 89.6035 107.387 89.8115 107.604 90.0518C107.82 90.292 107.987 90.5674 108.104 90.8779C108.228 91.1826 108.289 91.5342 108.289 91.9326C108.289 92.3955 108.198 92.8262 108.017 93.2246C107.841 93.623 107.589 93.9717 107.261 94.2705C106.938 94.5635 106.546 94.7949 106.083 94.9648C105.626 95.1289 105.116 95.2109 104.554 95.2109C103.763 95.2109 103.08 95.1025 102.506 94.8857C101.938 94.6631 101.498 94.3584 101.188 93.9717V95H100.027V91.4141H101.082C101.082 91.8359 101.138 92.2197 101.249 92.5654C101.36 92.9111 101.536 93.207 101.776 93.4531C102.017 93.6992 102.324 93.8896 102.699 94.0244C103.08 94.1592 103.537 94.2266 104.07 94.2266C104.457 94.2266 104.812 94.1768 105.134 94.0771C105.456 93.9775 105.731 93.8369 105.96 93.6553C106.194 93.4678 106.376 93.2451 106.505 92.9873C106.634 92.7236 106.698 92.4307 106.698 92.1084C106.698 91.6865 106.584 91.3438 106.355 91.0801C106.127 90.8105 105.825 90.582 105.45 90.3945C105.075 90.207 104.647 90.04 104.167 89.8936C103.692 89.7412 103.209 89.5713 102.717 89.3838C102.283 89.2197 101.902 89.0439 101.574 88.8564C101.246 88.6631 100.971 88.4492 100.748 88.2148C100.531 87.9805 100.367 87.7168 100.256 87.4238C100.145 87.1309 100.089 86.7998 100.089 86.4307C100.089 86.0146 100.171 85.625 100.335 85.2617C100.499 84.8984 100.736 84.585 101.047 84.3213C101.357 84.0518 101.735 83.8408 102.181 83.6885C102.626 83.5303 103.13 83.4512 103.692 83.4512C103.979 83.4512 104.255 83.4658 104.519 83.4951C104.788 83.5244 105.046 83.5771 105.292 83.6533C105.544 83.7236 105.787 83.8232 106.021 83.9521C106.256 84.0752 106.49 84.2363 106.725 84.4355V83.7061C106.865 83.7061 107.035 83.709 107.234 83.7148C107.434 83.7148 107.627 83.7148 107.814 83.7148V86.7295ZM115.856 83.4424C116.741 83.4424 117.541 83.5859 118.256 83.873C118.977 84.1543 119.586 84.5527 120.084 85.0684C120.588 85.584 120.975 86.2021 121.244 86.9229C121.52 87.6436 121.657 88.4434 121.657 89.3223C121.657 90.1953 121.522 90.9922 121.253 91.7129C120.983 92.4336 120.6 93.0547 120.102 93.5762C119.604 94.0918 119 94.4932 118.291 94.7803C117.582 95.0674 116.791 95.2109 115.918 95.2109C115.01 95.2109 114.192 95.0703 113.466 94.7891C112.745 94.5078 112.13 94.1123 111.62 93.6025C111.116 93.0869 110.729 92.4688 110.46 91.748C110.19 91.0215 110.056 90.2129 110.056 89.3223C110.056 88.4434 110.19 87.6436 110.46 86.9229C110.729 86.1963 111.113 85.5781 111.611 85.0684C112.115 84.5527 112.725 84.1543 113.439 83.873C114.16 83.5859 114.966 83.4424 115.856 83.4424ZM115.848 84.4355C115.215 84.4355 114.646 84.5498 114.143 84.7783C113.639 85.0068 113.211 85.332 112.859 85.7539C112.514 86.1758 112.247 86.6885 112.06 87.292C111.872 87.8955 111.778 88.5693 111.778 89.3135C111.778 90.0635 111.872 90.7402 112.06 91.3438C112.247 91.9473 112.517 92.46 112.868 92.8818C113.22 93.3037 113.647 93.6289 114.151 93.8574C114.655 94.0801 115.221 94.1914 115.848 94.1914C116.48 94.1914 117.046 94.0801 117.544 93.8574C118.048 93.6289 118.476 93.3037 118.827 92.8818C119.179 92.46 119.448 91.9502 119.636 91.3525C119.823 90.749 119.917 90.0723 119.917 89.3223C119.917 88.5664 119.823 87.8867 119.636 87.2832C119.448 86.6797 119.179 86.167 118.827 85.7451C118.476 85.3232 118.048 85.001 117.544 84.7783C117.046 84.5498 116.48 84.4355 115.848 84.4355ZM129.523 94.2002C130.127 94.2002 130.657 94.1533 131.114 94.0596C131.571 93.96 131.955 93.7959 132.266 93.5674C132.576 93.333 132.811 93.0254 132.969 92.6445C133.127 92.2578 133.209 91.7773 133.215 91.2031L134.234 91.3789L134.146 93.6641C133.795 93.9688 133.423 94.2207 133.03 94.4199C132.644 94.6191 132.245 94.7773 131.835 94.8945C131.431 95.0117 131.018 95.0938 130.596 95.1406C130.18 95.1875 129.767 95.2109 129.356 95.2109C128.407 95.2109 127.572 95.0703 126.852 94.7891C126.137 94.5078 125.536 94.1123 125.05 93.6025C124.563 93.0869 124.197 92.4688 123.951 91.748C123.705 91.0273 123.582 90.2275 123.582 89.3486C123.582 88.4521 123.723 87.6436 124.004 86.9229C124.285 86.1963 124.681 85.5752 125.19 85.0596C125.7 84.5439 126.31 84.1484 127.019 83.873C127.733 83.5918 128.524 83.4512 129.392 83.4512C130.054 83.4512 130.678 83.5566 131.264 83.7676C131.85 83.9785 132.359 84.2744 132.793 84.6553L132.89 83.7852H133.988V86.9404L132.969 86.9229C132.934 86.5186 132.825 86.1611 132.644 85.8506C132.468 85.54 132.23 85.2822 131.932 85.0771C131.639 84.8662 131.287 84.708 130.877 84.6025C130.473 84.4971 130.021 84.4443 129.523 84.4443C128.879 84.4443 128.296 84.5586 127.774 84.7871C127.259 85.0156 126.816 85.3408 126.447 85.7627C126.084 86.1846 125.803 86.6973 125.604 87.3008C125.404 87.8984 125.305 88.5693 125.305 89.3135C125.305 90.0693 125.404 90.749 125.604 91.3525C125.803 91.9561 126.084 92.4688 126.447 92.8906C126.816 93.3125 127.259 93.6377 127.774 93.8662C128.296 94.0889 128.879 94.2002 129.523 94.2002ZM135.588 83.6621C135.863 83.6738 136.104 83.6826 136.309 83.6885C136.514 83.6885 136.719 83.6885 136.924 83.6885C137.439 83.6885 137.873 83.6885 138.225 83.6885C138.582 83.6826 138.881 83.6797 139.121 83.6797C139.367 83.6738 139.569 83.6709 139.728 83.6709C139.892 83.665 140.044 83.6621 140.185 83.6621V84.5322H139.754C139.49 84.5322 139.285 84.5469 139.139 84.5762C138.992 84.6055 138.884 84.6494 138.813 84.708C138.749 84.7607 138.711 84.8252 138.699 84.9014C138.688 84.9775 138.682 85.0596 138.682 85.1475V93.5762C138.682 93.6875 138.688 93.7783 138.699 93.8486C138.711 93.9189 138.749 93.9746 138.813 94.0156C138.878 94.0566 138.983 94.0859 139.13 94.1035C139.276 94.1211 139.484 94.1299 139.754 94.1299H140.185V95C140.003 95 139.827 95 139.657 95C139.493 94.9941 139.32 94.9912 139.139 94.9912C138.963 94.9912 138.772 94.9912 138.567 94.9912C138.362 94.9854 138.131 94.9824 137.873 94.9824C137.404 94.9824 136.991 94.9854 136.634 94.9912C136.282 94.9971 135.934 95 135.588 95V94.1299H136.01C136.279 94.1299 136.484 94.1152 136.625 94.0859C136.771 94.0566 136.877 94.0156 136.941 93.9629C137.012 93.9043 137.053 93.8369 137.064 93.7607C137.076 93.6846 137.082 93.6025 137.082 93.5146V85.209C137.082 85.0801 137.073 84.9717 137.056 84.8838C137.044 84.7959 137.003 84.7256 136.933 84.6729C136.868 84.6201 136.763 84.585 136.616 84.5674C136.476 84.5439 136.273 84.5322 136.01 84.5322H135.588V83.6621ZM147.875 83.6621C147.875 83.6621 147.925 83.7939 148.024 84.0576C148.124 84.3213 148.256 84.6699 148.42 85.1035C148.584 85.5371 148.771 86.0322 148.982 86.5889C149.199 87.1396 149.416 87.708 149.633 88.2939C149.855 88.874 150.072 89.4424 150.283 89.999C150.5 90.5557 150.693 91.0566 150.863 91.502C151.033 91.9414 151.171 92.3018 151.276 92.583C151.382 92.8584 151.438 93.0049 151.443 93.0225C151.549 93.2979 151.634 93.5117 151.698 93.6641C151.769 93.8105 151.854 93.9189 151.953 93.9893C152.053 94.0596 152.188 94.1035 152.357 94.1211C152.533 94.1328 152.779 94.1387 153.096 94.1387V95C152.768 95 152.442 94.9971 152.12 94.9912C151.798 94.9854 151.464 94.9824 151.118 94.9824C150.931 94.9824 150.749 94.9824 150.573 94.9824C150.397 94.9824 150.216 94.9824 150.028 94.9824C149.841 94.9824 149.642 94.9854 149.431 94.9912C149.22 94.9912 148.982 94.9941 148.719 95C148.719 94.9531 148.716 94.8828 148.71 94.7891C148.71 94.6895 148.71 94.5928 148.71 94.499V94.1562C148.979 94.1562 149.199 94.1562 149.369 94.1562C149.539 94.1504 149.674 94.1416 149.773 94.1299C149.873 94.1123 149.94 94.0889 149.976 94.0596C150.017 94.0244 150.037 93.9775 150.037 93.9189C150.025 93.8896 150.017 93.8516 150.011 93.8047C150.005 93.7578 149.993 93.7021 149.976 93.6377L149.044 90.8428H144.447C144.441 90.8545 144.415 90.9307 144.368 91.0713C144.321 91.2061 144.263 91.376 144.192 91.5811C144.122 91.7803 144.046 91.9971 143.964 92.2314C143.882 92.4658 143.803 92.6855 143.727 92.8906C143.656 93.0898 143.598 93.2598 143.551 93.4004C143.504 93.5352 143.48 93.6055 143.48 93.6113C143.422 93.7578 143.393 93.8633 143.393 93.9277C143.393 94.0391 143.451 94.1064 143.568 94.1299C143.691 94.1533 143.894 94.165 144.175 94.165H144.808V95C144.479 95 144.151 94.9971 143.823 94.9912C143.501 94.9854 143.173 94.9824 142.839 94.9824C142.663 94.9824 142.493 94.9824 142.329 94.9824C142.171 94.9824 142.007 94.9824 141.837 94.9824C141.667 94.9824 141.485 94.9854 141.292 94.9912C141.104 94.9912 140.894 94.9941 140.659 95V94.1299C140.952 94.124 141.181 94.1182 141.345 94.1123C141.515 94.1064 141.646 94.083 141.74 94.042C141.834 94.001 141.904 93.9395 141.951 93.8574C142.004 93.7754 142.06 93.6553 142.118 93.4971C142.124 93.4795 142.159 93.3857 142.224 93.2158C142.294 93.04 142.382 92.8115 142.487 92.5303C142.599 92.249 142.725 91.9238 142.865 91.5547C143.006 91.1797 143.155 90.7842 143.313 90.3682C143.478 89.9521 143.642 89.5273 143.806 89.0938C143.976 88.6543 144.14 88.2266 144.298 87.8105C144.456 87.3945 144.605 87.002 144.746 86.6328C144.893 86.2578 145.019 85.9297 145.124 85.6484C145.235 85.3672 145.323 85.1416 145.388 84.9717C145.452 84.7959 145.487 84.6992 145.493 84.6816L145.845 83.6621H147.875ZM144.781 89.9551H148.719L146.75 84.4883L144.781 89.9551ZM152.437 83.6621C152.437 83.6621 152.504 83.665 152.639 83.6709C152.779 83.6709 152.958 83.6709 153.175 83.6709C153.397 83.6709 153.644 83.6738 153.913 83.6797C154.183 83.6797 154.446 83.6797 154.704 83.6797C154.968 83.6797 155.208 83.6797 155.425 83.6797C155.647 83.6797 155.823 83.6797 155.952 83.6797H159.345C159.544 83.6797 159.775 83.6797 160.039 83.6797C160.309 83.6738 160.581 83.6709 160.856 83.6709C161.132 83.6709 161.398 83.6709 161.656 83.6709C161.92 83.665 162.151 83.6621 162.351 83.6621V87.0547H161.419V85.2441C161.419 85.1211 161.41 85.0215 161.393 84.9453C161.375 84.8691 161.319 84.8105 161.226 84.7695C161.138 84.7285 160.997 84.7021 160.804 84.6904C160.61 84.6729 160.338 84.6641 159.986 84.6641H158.211V93.6201C158.211 93.7197 158.217 93.8018 158.229 93.8662C158.24 93.9307 158.281 93.9834 158.352 94.0244C158.422 94.0596 158.53 94.0859 158.677 94.1035C158.823 94.1211 159.031 94.1299 159.301 94.1299H159.793V95C159.623 95 159.456 95 159.292 95C159.128 95 158.955 95 158.773 95C158.598 95 158.407 95 158.202 95C158.003 94.9941 157.78 94.9883 157.534 94.9824C157.511 94.9824 157.446 94.9824 157.341 94.9824C157.235 94.9824 157.106 94.9854 156.954 94.9912C156.808 94.9912 156.644 94.9912 156.462 94.9912C156.286 94.9912 156.107 94.9941 155.926 95C155.75 95 155.583 95 155.425 95C155.267 95 155.135 95 155.029 95V94.1299H155.513C155.788 94.1299 155.999 94.1152 156.146 94.0859C156.298 94.0508 156.406 94.0068 156.471 93.9541C156.541 93.8955 156.582 93.8311 156.594 93.7607C156.605 93.6846 156.611 93.6055 156.611 93.5234V84.6641H154.704C154.376 84.6641 154.121 84.6758 153.939 84.6992C153.758 84.7168 153.623 84.7461 153.535 84.7871C153.447 84.8223 153.395 84.8721 153.377 84.9365C153.359 84.9951 153.351 85.0654 153.351 85.1475C153.351 85.2822 153.351 85.4316 153.351 85.5957C153.351 85.7539 153.351 85.918 153.351 86.0879C153.356 86.2578 153.359 86.4277 153.359 86.5977C153.359 86.7617 153.359 86.9141 153.359 87.0547H152.437V83.6621ZM163.361 83.6621C163.637 83.6738 163.877 83.6826 164.082 83.6885C164.287 83.6885 164.492 83.6885 164.697 83.6885C165.213 83.6885 165.646 83.6885 165.998 83.6885C166.355 83.6826 166.654 83.6797 166.895 83.6797C167.141 83.6738 167.343 83.6709 167.501 83.6709C167.665 83.665 167.817 83.6621 167.958 83.6621V84.5322H167.527C167.264 84.5322 167.059 84.5469 166.912 84.5762C166.766 84.6055 166.657 84.6494 166.587 84.708C166.522 84.7607 166.484 84.8252 166.473 84.9014C166.461 84.9775 166.455 85.0596 166.455 85.1475V93.5762C166.455 93.6875 166.461 93.7783 166.473 93.8486C166.484 93.9189 166.522 93.9746 166.587 94.0156C166.651 94.0566 166.757 94.0859 166.903 94.1035C167.05 94.1211 167.258 94.1299 167.527 94.1299H167.958V95C167.776 95 167.601 95 167.431 95C167.267 94.9941 167.094 94.9912 166.912 94.9912C166.736 94.9912 166.546 94.9912 166.341 94.9912C166.136 94.9854 165.904 94.9824 165.646 94.9824C165.178 94.9824 164.765 94.9854 164.407 94.9912C164.056 94.9971 163.707 95 163.361 95V94.1299H163.783C164.053 94.1299 164.258 94.1152 164.398 94.0859C164.545 94.0566 164.65 94.0156 164.715 93.9629C164.785 93.9043 164.826 93.8369 164.838 93.7607C164.85 93.6846 164.855 93.6025 164.855 93.5146V85.209C164.855 85.0801 164.847 84.9717 164.829 84.8838C164.817 84.7959 164.776 84.7256 164.706 84.6729C164.642 84.6201 164.536 84.585 164.39 84.5674C164.249 84.5439 164.047 84.5322 163.783 84.5322H163.361V83.6621ZM175.253 83.4424C176.138 83.4424 176.938 83.5859 177.652 83.873C178.373 84.1543 178.982 84.5527 179.48 85.0684C179.984 85.584 180.371 86.2021 180.641 86.9229C180.916 87.6436 181.054 88.4434 181.054 89.3223C181.054 90.1953 180.919 90.9922 180.649 91.7129C180.38 92.4336 179.996 93.0547 179.498 93.5762C179 94.0918 178.396 94.4932 177.688 94.7803C176.979 95.0674 176.188 95.2109 175.314 95.2109C174.406 95.2109 173.589 95.0703 172.862 94.7891C172.142 94.5078 171.526 94.1123 171.017 93.6025C170.513 93.0869 170.126 92.4688 169.856 91.748C169.587 91.0215 169.452 90.2129 169.452 89.3223C169.452 88.4434 169.587 87.6436 169.856 86.9229C170.126 86.1963 170.51 85.5781 171.008 85.0684C171.512 84.5527 172.121 84.1543 172.836 83.873C173.557 83.5859 174.362 83.4424 175.253 83.4424ZM175.244 84.4355C174.611 84.4355 174.043 84.5498 173.539 84.7783C173.035 85.0068 172.607 85.332 172.256 85.7539C171.91 86.1758 171.644 86.6885 171.456 87.292C171.269 87.8955 171.175 88.5693 171.175 89.3135C171.175 90.0635 171.269 90.7402 171.456 91.3438C171.644 91.9473 171.913 92.46 172.265 92.8818C172.616 93.3037 173.044 93.6289 173.548 93.8574C174.052 94.0801 174.617 94.1914 175.244 94.1914C175.877 94.1914 176.442 94.0801 176.94 93.8574C177.444 93.6289 177.872 93.3037 178.224 92.8818C178.575 92.46 178.845 91.9502 179.032 91.3525C179.22 90.749 179.313 90.0723 179.313 89.3223C179.313 88.5664 179.22 87.8867 179.032 87.2832C178.845 86.6797 178.575 86.167 178.224 85.7451C177.872 85.3232 177.444 85.001 176.94 84.7783C176.442 84.5498 175.877 84.4355 175.244 84.4355ZM182.346 83.6621C182.346 83.6621 182.381 83.6621 182.451 83.6621C182.521 83.6621 182.612 83.6621 182.724 83.6621C182.835 83.6621 182.955 83.6621 183.084 83.6621C183.219 83.6621 183.348 83.665 183.471 83.6709C183.594 83.6709 183.705 83.6709 183.805 83.6709C183.904 83.6709 183.975 83.6709 184.016 83.6709C184.133 83.6709 184.265 83.6709 184.411 83.6709C184.558 83.6709 184.707 83.6709 184.859 83.6709C185.018 83.665 185.173 83.6621 185.325 83.6621C185.478 83.6621 185.615 83.6621 185.738 83.6621L191.592 93.3564H191.609V85.165C191.609 85.0127 191.592 84.8955 191.557 84.8135C191.521 84.7256 191.463 84.6611 191.381 84.6201C191.299 84.5791 191.185 84.5557 191.038 84.5498C190.897 84.5381 190.719 84.5322 190.502 84.5322H190.045V83.6621C190.508 83.6621 190.897 83.668 191.214 83.6797C191.53 83.6855 191.817 83.6885 192.075 83.6885C192.104 83.6885 192.16 83.6885 192.242 83.6885C192.324 83.6885 192.418 83.6885 192.523 83.6885C192.635 83.6885 192.755 83.6885 192.884 83.6885C193.019 83.6826 193.15 83.6797 193.279 83.6797C193.584 83.6738 193.921 83.668 194.29 83.6621V84.5322H193.736C193.508 84.5322 193.329 84.5469 193.2 84.5762C193.077 84.5996 192.986 84.6377 192.928 84.6904C192.869 84.7432 192.834 84.8076 192.822 84.8838C192.811 84.96 192.805 85.0479 192.805 85.1475C192.805 85.1475 192.805 85.2119 192.805 85.3408C192.805 85.4639 192.802 85.6426 192.796 85.877C192.796 86.1055 192.796 86.3809 192.796 86.7031C192.796 87.0254 192.796 87.377 192.796 87.7578V92.5303C192.796 93.3916 192.799 94.2441 192.805 95.0879H191.1L185.053 85.1211H185.035V93.4619C185.035 93.626 185.05 93.7549 185.079 93.8486C185.114 93.9365 185.173 94.001 185.255 94.042C185.337 94.083 185.448 94.1094 185.589 94.1211C185.735 94.127 185.923 94.1299 186.151 94.1299H186.626V95C186.468 95 186.315 95 186.169 95C186.022 94.9941 185.87 94.9912 185.712 94.9912C185.56 94.9912 185.396 94.9912 185.22 94.9912C185.044 94.9854 184.845 94.9824 184.622 94.9824C184.382 94.9824 184.159 94.9854 183.954 94.9912C183.755 94.9912 183.562 94.9912 183.374 94.9912C183.192 94.9912 183.011 94.9941 182.829 95C182.653 95 182.475 95 182.293 95V94.1299H182.855C183.102 94.1299 183.292 94.1182 183.427 94.0947C183.562 94.0713 183.658 94.0303 183.717 93.9717C183.781 93.9131 183.816 93.8398 183.822 93.752C183.834 93.6582 183.84 93.5439 183.84 93.4092V85.2529C183.84 85.0771 183.828 84.9424 183.805 84.8486C183.781 84.749 183.734 84.6758 183.664 84.6289C183.6 84.582 183.503 84.5557 183.374 84.5498C183.251 84.5381 183.087 84.5322 182.882 84.5322H182.337C182.337 84.4795 182.337 84.415 182.337 84.3389C182.337 84.2627 182.337 84.1836 182.337 84.1016C182.343 84.0195 182.346 83.9404 182.346 83.8643C182.346 83.7822 182.346 83.7148 182.346 83.6621Z" fill="black"/>
<rect x="84" y="17" width="2" height="50" fill="black"/>
<path d="M88.8896 20.5518C89.1191 20.5615 89.3193 20.5688 89.4902 20.5737C89.6611 20.5737 89.832 20.5737 90.0029 20.5737C90.4326 20.5737 90.7939 20.5737 91.0869 20.5737C91.3848 20.5688 91.6338 20.5664 91.834 20.5664C92.0391 20.5615 92.2075 20.5591 92.3394 20.5591C92.4761 20.5542 92.603 20.5518 92.7202 20.5518V21.2769H92.3613C92.1416 21.2769 91.9707 21.2891 91.8486 21.3135C91.7266 21.3379 91.6362 21.3745 91.5776 21.4233C91.5239 21.4673 91.4922 21.521 91.4824 21.5845C91.4727 21.6479 91.4678 21.7163 91.4678 21.7896V28.8135C91.4678 28.9062 91.4727 28.9819 91.4824 29.0405C91.4922 29.0991 91.5239 29.1455 91.5776 29.1797C91.6313 29.2139 91.7192 29.2383 91.8413 29.2529C91.9634 29.2676 92.1367 29.2749 92.3613 29.2749H92.7202V30C92.5688 30 92.4224 30 92.2808 30C92.144 29.9951 92 29.9927 91.8486 29.9927C91.7021 29.9927 91.5435 29.9927 91.3726 29.9927C91.2017 29.9878 91.0088 29.9854 90.7939 29.9854C90.4033 29.9854 90.0591 29.9878 89.7612 29.9927C89.4683 29.9976 89.1777 30 88.8896 30V29.2749H89.2412C89.4658 29.2749 89.6367 29.2627 89.7539 29.2383C89.876 29.2139 89.9639 29.1797 90.0176 29.1357C90.0762 29.0869 90.1104 29.0308 90.1201 28.9673C90.1299 28.9038 90.1348 28.8354 90.1348 28.7622V21.8408C90.1348 21.7334 90.1274 21.6431 90.1128 21.5698C90.103 21.4966 90.0688 21.438 90.0103 21.394C89.9565 21.3501 89.8687 21.3208 89.7466 21.3062C89.6294 21.2866 89.4609 21.2769 89.2412 21.2769H88.8896V20.5518ZM93.5186 20.5518C93.5186 20.5518 93.5479 20.5518 93.6064 20.5518C93.665 20.5518 93.7407 20.5518 93.8335 20.5518C93.9263 20.5518 94.0264 20.5518 94.1338 20.5518C94.2461 20.5518 94.3535 20.5542 94.4561 20.5591C94.5586 20.5591 94.6514 20.5591 94.7344 20.5591C94.8174 20.5591 94.876 20.5591 94.9102 20.5591C95.0078 20.5591 95.1177 20.5591 95.2397 20.5591C95.3618 20.5591 95.4863 20.5591 95.6133 20.5591C95.7451 20.5542 95.8745 20.5518 96.0015 20.5518C96.1284 20.5518 96.2432 20.5518 96.3457 20.5518L101.224 28.6304H101.238V21.8042C101.238 21.6772 101.224 21.5796 101.194 21.5112C101.165 21.438 101.116 21.3843 101.048 21.3501C100.979 21.3159 100.884 21.2964 100.762 21.2915C100.645 21.2817 100.496 21.2769 100.315 21.2769H99.9346V20.5518C100.32 20.5518 100.645 20.5566 100.909 20.5664C101.172 20.5713 101.412 20.5737 101.626 20.5737C101.651 20.5737 101.697 20.5737 101.766 20.5737C101.834 20.5737 101.912 20.5737 102 20.5737C102.093 20.5737 102.193 20.5737 102.3 20.5737C102.413 20.5688 102.522 20.5664 102.63 20.5664C102.884 20.5615 103.165 20.5566 103.472 20.5518V21.2769H103.011C102.82 21.2769 102.671 21.2891 102.564 21.3135C102.461 21.333 102.386 21.3647 102.337 21.4087C102.288 21.4526 102.259 21.5063 102.249 21.5698C102.239 21.6333 102.234 21.7065 102.234 21.7896C102.234 21.7896 102.234 21.8433 102.234 21.9507C102.234 22.0532 102.232 22.2021 102.227 22.3975C102.227 22.5879 102.227 22.8174 102.227 23.0859C102.227 23.3545 102.227 23.6475 102.227 23.9648V27.9419C102.227 28.6597 102.229 29.3701 102.234 30.0732H100.813L95.7744 21.7676H95.7598V28.7183C95.7598 28.855 95.772 28.9624 95.7964 29.0405C95.8257 29.1138 95.8745 29.1675 95.9429 29.2017C96.0112 29.2358 96.104 29.2578 96.2212 29.2676C96.3433 29.2725 96.4995 29.2749 96.6899 29.2749H97.0854V30C96.9536 30 96.8267 30 96.7046 30C96.5825 29.9951 96.4556 29.9927 96.3237 29.9927C96.1968 29.9927 96.0601 29.9927 95.9136 29.9927C95.7671 29.9878 95.6011 29.9854 95.4155 29.9854C95.2153 29.9854 95.0298 29.9878 94.8589 29.9927C94.6929 29.9927 94.5317 29.9927 94.3755 29.9927C94.2241 29.9927 94.0728 29.9951 93.9214 30C93.7749 30 93.626 30 93.4746 30V29.2749H93.9434C94.1484 29.2749 94.3071 29.2651 94.4194 29.2456C94.5317 29.2261 94.6123 29.1919 94.6611 29.1431C94.7148 29.0942 94.7441 29.0332 94.749 28.96C94.7588 28.8818 94.7637 28.7866 94.7637 28.6743V21.8774C94.7637 21.731 94.7539 21.6187 94.7344 21.5405C94.7148 21.4575 94.6758 21.3965 94.6172 21.3574C94.5635 21.3184 94.4829 21.2964 94.3755 21.2915C94.2729 21.2817 94.1362 21.2769 93.9653 21.2769H93.5112C93.5112 21.2329 93.5112 21.1792 93.5112 21.1157C93.5112 21.0522 93.5112 20.9863 93.5112 20.918C93.5161 20.8496 93.5186 20.7837 93.5186 20.7202C93.5186 20.6519 93.5186 20.5957 93.5186 20.5518ZM111.771 20.5518V22.9688H110.958V22.6685C110.958 22.3462 110.948 22.0996 110.928 21.9287C110.909 21.7529 110.875 21.626 110.826 21.5479C110.782 21.4648 110.721 21.4185 110.643 21.4087C110.569 21.394 110.479 21.3867 110.372 21.3867H106.753V24.7705H108.855C108.895 24.7705 108.931 24.7729 108.965 24.7778C109.004 24.7778 109.041 24.7778 109.075 24.7778C109.134 24.7778 109.185 24.7729 109.229 24.7632C109.273 24.7485 109.31 24.7192 109.339 24.6753C109.368 24.6313 109.39 24.5703 109.405 24.4922C109.424 24.4092 109.437 24.2969 109.441 24.1553H109.961V26.1401H109.441C109.437 25.9888 109.422 25.8716 109.397 25.7886C109.373 25.7056 109.336 25.6445 109.288 25.6055C109.239 25.5664 109.18 25.5444 109.112 25.5396C109.043 25.5298 108.963 25.5249 108.87 25.5249H106.753V28.7842C106.753 28.9062 106.771 29.0015 106.805 29.0698C106.839 29.1333 106.893 29.1821 106.966 29.2163C107.039 29.2456 107.137 29.2627 107.259 29.2676C107.381 29.2725 107.53 29.2749 107.706 29.2749H108.101V30C107.95 30 107.801 30 107.654 30C107.513 30 107.364 30 107.208 30C107.056 30 106.893 30 106.717 30C106.541 29.9951 106.348 29.9902 106.138 29.9854C105.914 29.9854 105.711 29.9878 105.53 29.9927C105.354 29.9927 105.186 29.9927 105.025 29.9927C104.869 29.9927 104.715 29.9951 104.563 30C104.412 30 104.256 30 104.095 30V29.2749H104.952C105.059 29.2749 105.145 29.2627 105.208 29.2383C105.271 29.2139 105.318 29.1772 105.347 29.1284C105.376 29.0796 105.394 29.0186 105.398 28.9453C105.408 28.8721 105.413 28.7866 105.413 28.689V21.936C105.413 21.814 105.411 21.7114 105.406 21.6284C105.406 21.5405 105.391 21.4722 105.362 21.4233C105.333 21.3696 105.286 21.333 105.223 21.3135C105.159 21.2891 105.069 21.2769 104.952 21.2769H104.139V20.5518H111.771ZM117.461 20.3687C118.199 20.3687 118.865 20.4883 119.461 20.7275C120.062 20.9619 120.569 21.2939 120.984 21.7236C121.404 22.1533 121.727 22.6685 121.951 23.269C122.181 23.8696 122.295 24.5361 122.295 25.2686C122.295 25.9961 122.183 26.6602 121.958 27.2607C121.734 27.8613 121.414 28.3789 120.999 28.8135C120.584 29.2432 120.081 29.5776 119.49 29.8169C118.899 30.0562 118.24 30.1758 117.513 30.1758C116.756 30.1758 116.075 30.0586 115.469 29.8242C114.869 29.5898 114.356 29.2603 113.931 28.8354C113.511 28.4058 113.189 27.8906 112.964 27.29C112.74 26.6846 112.627 26.0107 112.627 25.2686C112.627 24.5361 112.74 23.8696 112.964 23.269C113.189 22.6636 113.509 22.1484 113.924 21.7236C114.344 21.2939 114.852 20.9619 115.447 20.7275C116.048 20.4883 116.719 20.3687 117.461 20.3687ZM117.454 21.1963C116.927 21.1963 116.453 21.2915 116.033 21.4819C115.613 21.6724 115.257 21.9434 114.964 22.2949C114.676 22.6465 114.454 23.0737 114.297 23.5767C114.141 24.0796 114.063 24.6411 114.063 25.2612C114.063 25.8862 114.141 26.4502 114.297 26.9531C114.454 27.4561 114.678 27.8833 114.971 28.2349C115.264 28.5864 115.621 28.8574 116.041 29.0479C116.46 29.2334 116.932 29.3262 117.454 29.3262C117.981 29.3262 118.453 29.2334 118.868 29.0479C119.288 28.8574 119.644 28.5864 119.937 28.2349C120.23 27.8833 120.455 27.4585 120.611 26.9604C120.767 26.4575 120.845 25.8936 120.845 25.2686C120.845 24.6387 120.767 24.0723 120.611 23.5693C120.455 23.0664 120.23 22.6392 119.937 22.2876C119.644 21.936 119.288 21.6675 118.868 21.4819C118.453 21.2915 117.981 21.1963 117.454 21.1963ZM130.44 27.4438C130.513 27.7661 130.582 28.0444 130.645 28.2788C130.708 28.5132 130.777 28.7061 130.85 28.8574C130.923 29.0039 131.006 29.1138 131.099 29.187C131.192 29.2603 131.307 29.2969 131.443 29.2969C131.517 29.2969 131.59 29.2896 131.663 29.2749C131.736 29.2554 131.802 29.2212 131.861 29.1724C131.919 29.1187 131.966 29.0454 132 28.9526C132.039 28.8599 132.059 28.7402 132.059 28.5938L132.798 28.5278C132.798 29.0356 132.659 29.4385 132.381 29.7363C132.103 30.0293 131.709 30.1758 131.202 30.1758C130.845 30.1758 130.552 30.1025 130.323 29.9561C130.093 29.8096 129.9 29.6045 129.744 29.3408C129.588 29.0771 129.451 28.7622 129.334 28.396C129.222 28.0298 129.104 27.6245 128.982 27.1802C128.895 26.8628 128.777 26.5796 128.631 26.3306C128.484 26.0815 128.343 25.8569 128.206 25.6567C128.06 25.603 127.889 25.564 127.693 25.5396C127.498 25.5151 127.276 25.5029 127.027 25.5029H126.06V28.894C126.06 28.9917 126.075 29.0674 126.104 29.1211C126.133 29.1699 126.182 29.2065 126.25 29.231C126.324 29.2505 126.419 29.2627 126.536 29.2676C126.658 29.2725 126.807 29.2749 126.983 29.2749H127.364V30C127.217 30 127.073 30 126.932 30C126.79 30 126.644 30 126.492 30C126.346 30 126.187 30 126.016 30C125.85 29.9951 125.667 29.9902 125.467 29.9854C125.252 29.9854 125.052 29.9878 124.866 29.9927C124.681 29.9927 124.505 29.9927 124.339 29.9927C124.173 29.9927 124.012 29.9951 123.855 30C123.699 30 123.543 30 123.387 30V29.2749H123.753C123.997 29.2749 124.185 29.2651 124.317 29.2456C124.449 29.2261 124.544 29.1968 124.603 29.1577C124.666 29.1187 124.703 29.0698 124.712 29.0112C124.722 28.9526 124.727 28.8843 124.727 28.8062V21.7456C124.727 21.6333 124.717 21.5454 124.698 21.4819C124.678 21.4185 124.625 21.3721 124.537 21.3428C124.449 21.3135 124.314 21.2964 124.134 21.2915C123.958 21.2817 123.709 21.2769 123.387 21.2769V20.5518H127.422C127.955 20.5518 128.45 20.5859 128.909 20.6543C129.373 20.7178 129.773 20.8398 130.11 21.0205C130.447 21.1963 130.711 21.4429 130.901 21.7603C131.097 22.0776 131.194 22.4854 131.194 22.9834C131.194 23.5693 131.014 24.0576 130.652 24.4482C130.296 24.8389 129.786 25.105 129.122 25.2466C129.268 25.3589 129.405 25.4785 129.532 25.6055C129.659 25.7275 129.778 25.874 129.891 26.0449C130.003 26.2109 130.103 26.4087 130.191 26.6382C130.284 26.8628 130.367 27.1313 130.44 27.4438ZM126.06 24.7925H127.657C128.052 24.7925 128.389 24.7607 128.667 24.6973C128.951 24.6338 129.18 24.5337 129.356 24.397C129.532 24.2603 129.661 24.082 129.744 23.8623C129.827 23.6426 129.869 23.3765 129.869 23.064C129.869 22.7075 129.81 22.417 129.693 22.1924C129.576 21.9678 129.402 21.7944 129.173 21.6724C128.948 21.5454 128.67 21.46 128.338 21.416C128.006 21.3672 127.625 21.3428 127.195 21.3428H126.06V24.7925ZM133.208 20.5518C133.501 20.5615 133.807 20.5664 134.124 20.5664C134.446 20.5664 134.739 20.5664 135.003 20.5664C135.027 20.5664 135.103 20.5664 135.23 20.5664C135.362 20.5615 135.503 20.5591 135.655 20.5591C135.806 20.5591 135.948 20.5591 136.08 20.5591C136.216 20.5542 136.302 20.5518 136.336 20.5518L139.236 28.4473C139.241 28.4229 139.285 28.2959 139.368 28.0664C139.456 27.832 139.566 27.5317 139.698 27.1655C139.834 26.7944 139.988 26.3794 140.159 25.9204C140.33 25.4565 140.503 24.9854 140.679 24.5068C140.86 24.0234 141.036 23.5522 141.207 23.0933C141.377 22.6294 141.531 22.2144 141.668 21.8481C141.805 21.4771 141.915 21.1743 141.998 20.9399C142.085 20.7056 142.134 20.5762 142.144 20.5518C142.164 20.5518 142.215 20.5518 142.298 20.5518C142.381 20.5518 142.479 20.5542 142.591 20.5591C142.703 20.5591 142.82 20.5615 142.942 20.5664C143.069 20.5664 143.189 20.5688 143.301 20.5737C143.414 20.5737 143.509 20.5737 143.587 20.5737C143.665 20.5737 143.714 20.5737 143.733 20.5737C143.855 20.5737 143.985 20.5737 144.122 20.5737C144.263 20.5737 144.402 20.5737 144.539 20.5737C144.681 20.5688 144.817 20.5664 144.949 20.5664C145.081 20.5615 145.203 20.5566 145.315 20.5518V21.2769H144.861C144.671 21.2769 144.522 21.2891 144.415 21.3135C144.312 21.333 144.236 21.3647 144.188 21.4087C144.139 21.4478 144.109 21.499 144.1 21.5625C144.09 21.626 144.085 21.6992 144.085 21.7822V28.623C144.085 28.7793 144.095 28.9014 144.114 28.9893C144.139 29.0771 144.18 29.1431 144.239 29.187C144.297 29.2261 144.378 29.2505 144.48 29.2603C144.588 29.27 144.725 29.2749 144.891 29.2749H145.337V30C145.167 30 145 30 144.839 30C144.683 29.9951 144.52 29.9927 144.349 29.9927C144.183 29.9927 144.004 29.9927 143.814 29.9927C143.624 29.9878 143.411 29.9854 143.177 29.9854C142.996 29.9854 142.835 29.9878 142.693 29.9927C142.557 29.9927 142.43 29.9927 142.312 29.9927C142.195 29.9927 142.081 29.9951 141.968 30C141.861 30 141.746 30 141.624 30V29.2749H142.063C142.259 29.2749 142.41 29.2603 142.518 29.231C142.63 29.1968 142.71 29.1504 142.759 29.0918C142.813 29.0332 142.845 28.9648 142.854 28.8867C142.864 28.8037 142.869 28.7134 142.869 28.6157V21.2109L142.203 22.9541L139.551 30H138.724C138.543 29.5361 138.357 29.0503 138.167 28.5425C137.977 28.0347 137.784 27.522 137.588 27.0044C137.398 26.4819 137.205 25.9619 137.01 25.4443C136.814 24.9219 136.624 24.4141 136.438 23.9209C136.253 23.4277 136.075 22.9541 135.904 22.5C135.733 22.0459 135.572 21.626 135.42 21.2402V28.6743C135.42 28.8159 135.428 28.9282 135.442 29.0112C135.462 29.0894 135.499 29.1479 135.552 29.187C135.606 29.2261 135.684 29.2505 135.787 29.2603C135.889 29.27 136.026 29.2749 136.197 29.2749H136.636V30C136.509 30 136.39 30 136.277 30C136.165 29.9951 136.045 29.9927 135.918 29.9927C135.796 29.9927 135.665 29.9927 135.523 29.9927C135.381 29.9878 135.22 29.9854 135.04 29.9854C134.844 29.9854 134.664 29.9878 134.498 29.9927C134.332 29.9927 134.173 29.9927 134.021 29.9927C133.875 29.9927 133.731 29.9951 133.589 30C133.448 30 133.304 30 133.157 30V29.2749H133.611C133.831 29.2749 133.995 29.2627 134.102 29.2383C134.214 29.2139 134.292 29.1772 134.336 29.1284C134.385 29.0796 134.41 29.0161 134.41 28.938C134.415 28.8599 134.417 28.7671 134.417 28.6597L134.424 21.8042C134.424 21.6821 134.41 21.5869 134.38 21.5186C134.351 21.4453 134.305 21.3916 134.241 21.3574C134.183 21.3232 134.102 21.3013 134 21.2915C133.902 21.2817 133.782 21.2769 133.641 21.2769H133.208V20.5518ZM151.644 20.5518C151.644 20.5518 151.685 20.6616 151.768 20.8813C151.851 21.1011 151.961 21.3916 152.098 21.7529C152.234 22.1143 152.391 22.5269 152.566 22.9907C152.747 23.4497 152.928 23.9233 153.108 24.4116C153.294 24.895 153.475 25.3687 153.65 25.8325C153.831 26.2964 153.992 26.7139 154.134 27.085C154.275 27.4512 154.39 27.7515 154.478 27.9858C154.566 28.2153 154.612 28.3374 154.617 28.3521C154.705 28.5815 154.776 28.7598 154.83 28.8867C154.888 29.0088 154.959 29.0991 155.042 29.1577C155.125 29.2163 155.237 29.2529 155.379 29.2676C155.525 29.2773 155.73 29.2822 155.994 29.2822V30C155.721 30 155.45 29.9976 155.181 29.9927C154.913 29.9878 154.634 29.9854 154.346 29.9854C154.19 29.9854 154.039 29.9854 153.892 29.9854C153.746 29.9854 153.594 29.9854 153.438 29.9854C153.282 29.9854 153.116 29.9878 152.94 29.9927C152.764 29.9927 152.566 29.9951 152.347 30C152.347 29.9609 152.344 29.9023 152.339 29.8242C152.339 29.7412 152.339 29.6606 152.339 29.5825V29.2969C152.564 29.2969 152.747 29.2969 152.889 29.2969C153.03 29.292 153.143 29.2847 153.226 29.2749C153.309 29.2603 153.365 29.2407 153.394 29.2163C153.428 29.187 153.445 29.1479 153.445 29.0991C153.436 29.0747 153.428 29.043 153.423 29.0039C153.418 28.9648 153.409 28.9185 153.394 28.8647L152.618 26.5356H148.787C148.782 26.5454 148.76 26.6089 148.721 26.7261C148.682 26.8384 148.633 26.98 148.575 27.1509C148.516 27.3169 148.453 27.4976 148.384 27.6929C148.316 27.8882 148.25 28.0713 148.187 28.2422C148.128 28.4082 148.079 28.5498 148.04 28.667C148.001 28.7793 147.981 28.8379 147.981 28.8428C147.933 28.9648 147.908 29.0527 147.908 29.1064C147.908 29.1992 147.957 29.2554 148.055 29.2749C148.157 29.2944 148.326 29.3042 148.56 29.3042H149.087V30C148.814 30 148.541 29.9976 148.267 29.9927C147.999 29.9878 147.725 29.9854 147.447 29.9854C147.3 29.9854 147.159 29.9854 147.022 29.9854C146.89 29.9854 146.753 29.9854 146.612 29.9854C146.47 29.9854 146.319 29.9878 146.158 29.9927C146.001 29.9927 145.826 29.9951 145.63 30V29.2749C145.875 29.27 146.065 29.2651 146.202 29.2603C146.343 29.2554 146.453 29.2358 146.531 29.2017C146.609 29.1675 146.668 29.1162 146.707 29.0479C146.751 28.9795 146.797 28.8794 146.846 28.7476C146.851 28.7329 146.88 28.6548 146.934 28.5132C146.993 28.3667 147.066 28.1763 147.154 27.9419C147.247 27.7075 147.352 27.4365 147.469 27.1289C147.586 26.8164 147.71 26.4868 147.842 26.1401C147.979 25.7935 148.116 25.4395 148.252 25.0781C148.394 24.7119 148.531 24.3555 148.663 24.0088C148.794 23.6621 148.919 23.335 149.036 23.0273C149.158 22.7148 149.263 22.4414 149.351 22.207C149.444 21.9727 149.517 21.7847 149.571 21.6431C149.625 21.4966 149.654 21.416 149.659 21.4014L149.952 20.5518H151.644ZM149.065 25.7959H152.347L150.706 21.2402L149.065 25.7959ZM155.445 20.5518C155.445 20.5518 155.501 20.5542 155.613 20.5591C155.73 20.5591 155.879 20.5591 156.06 20.5591C156.246 20.5591 156.451 20.5615 156.675 20.5664C156.9 20.5664 157.12 20.5664 157.334 20.5664C157.554 20.5664 157.754 20.5664 157.935 20.5664C158.121 20.5664 158.267 20.5664 158.375 20.5664H161.202C161.368 20.5664 161.561 20.5664 161.78 20.5664C162.005 20.5615 162.232 20.5591 162.461 20.5591C162.691 20.5591 162.913 20.5591 163.128 20.5591C163.348 20.5542 163.541 20.5518 163.707 20.5518V23.3789H162.93V21.8701C162.93 21.7676 162.923 21.6846 162.908 21.6211C162.894 21.5576 162.847 21.5088 162.769 21.4746C162.696 21.4404 162.579 21.4185 162.417 21.4087C162.256 21.394 162.029 21.3867 161.736 21.3867H160.257V28.8501C160.257 28.9331 160.262 29.0015 160.271 29.0552C160.281 29.1089 160.315 29.1528 160.374 29.187C160.433 29.2163 160.523 29.2383 160.645 29.2529C160.767 29.2676 160.94 29.2749 161.165 29.2749H161.575V30C161.434 30 161.294 30 161.158 30C161.021 30 160.877 30 160.726 30C160.579 30 160.42 30 160.25 30C160.083 29.9951 159.898 29.9902 159.693 29.9854C159.673 29.9854 159.62 29.9854 159.532 29.9854C159.444 29.9854 159.336 29.9878 159.209 29.9927C159.087 29.9927 158.951 29.9927 158.799 29.9927C158.653 29.9927 158.504 29.9951 158.353 30C158.206 30 158.067 30 157.935 30C157.803 30 157.693 30 157.605 30V29.2749H158.008C158.238 29.2749 158.414 29.2627 158.536 29.2383C158.663 29.209 158.753 29.1724 158.807 29.1284C158.865 29.0796 158.899 29.0259 158.909 28.9673C158.919 28.9038 158.924 28.8379 158.924 28.7695V21.3867H157.334C157.061 21.3867 156.849 21.3965 156.697 21.416C156.546 21.4307 156.434 21.4551 156.36 21.4893C156.287 21.5186 156.243 21.5601 156.229 21.6138C156.214 21.6626 156.207 21.7212 156.207 21.7896C156.207 21.9019 156.207 22.0264 156.207 22.1631C156.207 22.2949 156.207 22.4316 156.207 22.5732C156.211 22.7148 156.214 22.8564 156.214 22.998C156.214 23.1348 156.214 23.2617 156.214 23.3789H155.445V20.5518ZM164.549 20.5518C164.778 20.5615 164.979 20.5688 165.149 20.5737C165.32 20.5737 165.491 20.5737 165.662 20.5737C166.092 20.5737 166.453 20.5737 166.746 20.5737C167.044 20.5688 167.293 20.5664 167.493 20.5664C167.698 20.5615 167.867 20.5591 167.999 20.5591C168.135 20.5542 168.262 20.5518 168.379 20.5518V21.2769H168.021C167.801 21.2769 167.63 21.2891 167.508 21.3135C167.386 21.3379 167.295 21.3745 167.237 21.4233C167.183 21.4673 167.151 21.521 167.142 21.5845C167.132 21.6479 167.127 21.7163 167.127 21.7896V28.8135C167.127 28.9062 167.132 28.9819 167.142 29.0405C167.151 29.0991 167.183 29.1455 167.237 29.1797C167.291 29.2139 167.378 29.2383 167.5 29.2529C167.623 29.2676 167.796 29.2749 168.021 29.2749H168.379V30C168.228 30 168.082 30 167.94 30C167.803 29.9951 167.659 29.9927 167.508 29.9927C167.361 29.9927 167.203 29.9927 167.032 29.9927C166.861 29.9878 166.668 29.9854 166.453 29.9854C166.062 29.9854 165.718 29.9878 165.42 29.9927C165.127 29.9976 164.837 30 164.549 30V29.2749H164.9C165.125 29.2749 165.296 29.2627 165.413 29.2383C165.535 29.2139 165.623 29.1797 165.677 29.1357C165.735 29.0869 165.77 29.0308 165.779 28.9673C165.789 28.9038 165.794 28.8354 165.794 28.7622V21.8408C165.794 21.7334 165.787 21.6431 165.772 21.5698C165.762 21.4966 165.728 21.438 165.669 21.394C165.616 21.3501 165.528 21.3208 165.406 21.3062C165.289 21.2866 165.12 21.2769 164.9 21.2769H164.549V20.5518ZM174.458 20.3687C175.196 20.3687 175.862 20.4883 176.458 20.7275C177.059 20.9619 177.566 21.2939 177.981 21.7236C178.401 22.1533 178.724 22.6685 178.948 23.269C179.178 23.8696 179.292 24.5361 179.292 25.2686C179.292 25.9961 179.18 26.6602 178.956 27.2607C178.731 27.8613 178.411 28.3789 177.996 28.8135C177.581 29.2432 177.078 29.5776 176.487 29.8169C175.896 30.0562 175.237 30.1758 174.51 30.1758C173.753 30.1758 173.072 30.0586 172.466 29.8242C171.866 29.5898 171.353 29.2603 170.928 28.8354C170.508 28.4058 170.186 27.8906 169.961 27.29C169.737 26.6846 169.625 26.0107 169.625 25.2686C169.625 24.5361 169.737 23.8696 169.961 23.269C170.186 22.6636 170.506 22.1484 170.921 21.7236C171.341 21.2939 171.849 20.9619 172.444 20.7275C173.045 20.4883 173.716 20.3687 174.458 20.3687ZM174.451 21.1963C173.924 21.1963 173.45 21.2915 173.03 21.4819C172.61 21.6724 172.254 21.9434 171.961 22.2949C171.673 22.6465 171.451 23.0737 171.294 23.5767C171.138 24.0796 171.06 24.6411 171.06 25.2612C171.06 25.8862 171.138 26.4502 171.294 26.9531C171.451 27.4561 171.675 27.8833 171.968 28.2349C172.261 28.5864 172.618 28.8574 173.038 29.0479C173.458 29.2334 173.929 29.3262 174.451 29.3262C174.979 29.3262 175.45 29.2334 175.865 29.0479C176.285 28.8574 176.641 28.5864 176.934 28.2349C177.227 27.8833 177.452 27.4585 177.608 26.9604C177.764 26.4575 177.842 25.8936 177.842 25.2686C177.842 24.6387 177.764 24.0723 177.608 23.5693C177.452 23.0664 177.227 22.6392 176.934 22.2876C176.641 21.936 176.285 21.6675 175.865 21.4819C175.45 21.2915 174.979 21.1963 174.451 21.1963ZM180.369 20.5518C180.369 20.5518 180.398 20.5518 180.457 20.5518C180.516 20.5518 180.591 20.5518 180.684 20.5518C180.777 20.5518 180.877 20.5518 180.984 20.5518C181.097 20.5518 181.204 20.5542 181.307 20.5591C181.409 20.5591 181.502 20.5591 181.585 20.5591C181.668 20.5591 181.727 20.5591 181.761 20.5591C181.858 20.5591 181.968 20.5591 182.09 20.5591C182.212 20.5591 182.337 20.5591 182.464 20.5591C182.596 20.5542 182.725 20.5518 182.852 20.5518C182.979 20.5518 183.094 20.5518 183.196 20.5518L188.074 28.6304H188.089V21.8042C188.089 21.6772 188.074 21.5796 188.045 21.5112C188.016 21.438 187.967 21.3843 187.898 21.3501C187.83 21.3159 187.735 21.2964 187.613 21.2915C187.496 21.2817 187.347 21.2769 187.166 21.2769H186.785V20.5518C187.171 20.5518 187.496 20.5566 187.759 20.5664C188.023 20.5713 188.262 20.5737 188.477 20.5737C188.501 20.5737 188.548 20.5737 188.616 20.5737C188.685 20.5737 188.763 20.5737 188.851 20.5737C188.943 20.5737 189.043 20.5737 189.151 20.5737C189.263 20.5688 189.373 20.5664 189.48 20.5664C189.734 20.5615 190.015 20.5566 190.323 20.5518V21.2769H189.861C189.671 21.2769 189.522 21.2891 189.415 21.3135C189.312 21.333 189.236 21.3647 189.188 21.4087C189.139 21.4526 189.109 21.5063 189.1 21.5698C189.09 21.6333 189.085 21.7065 189.085 21.7896C189.085 21.7896 189.085 21.8433 189.085 21.9507C189.085 22.0532 189.083 22.2021 189.078 22.3975C189.078 22.5879 189.078 22.8174 189.078 23.0859C189.078 23.3545 189.078 23.6475 189.078 23.9648V27.9419C189.078 28.6597 189.08 29.3701 189.085 30.0732H187.664L182.625 21.7676H182.61V28.7183C182.61 28.855 182.623 28.9624 182.647 29.0405C182.676 29.1138 182.725 29.1675 182.793 29.2017C182.862 29.2358 182.955 29.2578 183.072 29.2676C183.194 29.2725 183.35 29.2749 183.541 29.2749H183.936V30C183.804 30 183.677 30 183.555 30C183.433 29.9951 183.306 29.9927 183.174 29.9927C183.047 29.9927 182.911 29.9927 182.764 29.9927C182.618 29.9878 182.452 29.9854 182.266 29.9854C182.066 29.9854 181.88 29.9878 181.709 29.9927C181.543 29.9927 181.382 29.9927 181.226 29.9927C181.075 29.9927 180.923 29.9951 180.772 30C180.625 30 180.477 30 180.325 30V29.2749H180.794C180.999 29.2749 181.158 29.2651 181.27 29.2456C181.382 29.2261 181.463 29.1919 181.512 29.1431C181.565 29.0942 181.595 29.0332 181.6 28.96C181.609 28.8818 181.614 28.7866 181.614 28.6743V21.8774C181.614 21.731 181.604 21.6187 181.585 21.5405C181.565 21.4575 181.526 21.3965 181.468 21.3574C181.414 21.3184 181.333 21.2964 181.226 21.2915C181.124 21.2817 180.987 21.2769 180.816 21.2769H180.362C180.362 21.2329 180.362 21.1792 180.362 21.1157C180.362 21.0522 180.362 20.9863 180.362 20.918C180.367 20.8496 180.369 20.7837 180.369 20.7202C180.369 20.6519 180.369 20.5957 180.369 20.5518ZM107.991 41.1079H107.134C107.129 41.0542 107.125 41.0029 107.12 40.9541C107.12 40.9053 107.12 40.8564 107.12 40.8076C107.11 40.5537 107.049 40.3242 106.937 40.1191C106.824 39.9141 106.666 39.7407 106.46 39.5991C106.26 39.4575 106.021 39.3477 105.743 39.2695C105.464 39.1914 105.154 39.1523 104.812 39.1523C104.505 39.1523 104.227 39.1914 103.978 39.2695C103.733 39.3428 103.526 39.4478 103.355 39.5845C103.184 39.7212 103.052 39.8848 102.959 40.0752C102.872 40.2607 102.828 40.4634 102.828 40.6831C102.828 40.9175 102.874 41.1201 102.967 41.291C103.06 41.4619 103.187 41.6133 103.348 41.7451C103.509 41.877 103.699 41.9941 103.919 42.0967C104.144 42.1943 104.385 42.2896 104.644 42.3823C104.903 42.4702 105.176 42.5605 105.464 42.6533C105.752 42.7461 106.043 42.8462 106.336 42.9536C106.639 43.0708 106.915 43.2051 107.164 43.3564C107.417 43.5029 107.635 43.6763 107.815 43.8765C107.996 44.0767 108.135 44.3062 108.233 44.5649C108.335 44.8188 108.387 45.1118 108.387 45.4438C108.387 45.8296 108.311 46.1885 108.16 46.5205C108.013 46.8525 107.803 47.1431 107.53 47.3921C107.261 47.6362 106.934 47.8291 106.548 47.9707C106.167 48.1074 105.743 48.1758 105.274 48.1758C104.615 48.1758 104.046 48.0854 103.567 47.9048C103.094 47.7192 102.728 47.4653 102.469 47.1431V48H101.502V45.0117H102.381C102.381 45.3633 102.427 45.6831 102.52 45.9712C102.613 46.2593 102.759 46.5059 102.959 46.7109C103.16 46.916 103.416 47.0747 103.729 47.187C104.046 47.2993 104.427 47.3555 104.871 47.3555C105.193 47.3555 105.489 47.314 105.757 47.231C106.026 47.1479 106.255 47.0308 106.446 46.8794C106.641 46.7231 106.792 46.5376 106.9 46.3228C107.007 46.103 107.061 45.8589 107.061 45.5903C107.061 45.2388 106.966 44.9531 106.775 44.7334C106.585 44.5088 106.333 44.3184 106.021 44.1621C105.708 44.0059 105.352 43.8667 104.952 43.7446C104.556 43.6177 104.153 43.4761 103.743 43.3198C103.382 43.1831 103.064 43.0366 102.791 42.8804C102.518 42.7192 102.288 42.541 102.103 42.3457C101.922 42.1504 101.785 41.9307 101.692 41.6865C101.6 41.4424 101.553 41.1665 101.553 40.8589C101.553 40.5122 101.622 40.1875 101.758 39.8848C101.895 39.582 102.093 39.3208 102.352 39.1011C102.61 38.8765 102.925 38.7007 103.296 38.5737C103.667 38.4419 104.087 38.376 104.556 38.376C104.795 38.376 105.025 38.3882 105.245 38.4126C105.469 38.437 105.684 38.481 105.889 38.5444C106.099 38.603 106.302 38.686 106.497 38.7935C106.692 38.896 106.888 39.0303 107.083 39.1963V38.5884C107.2 38.5884 107.342 38.5908 107.508 38.5957C107.674 38.5957 107.835 38.5957 107.991 38.5957V41.1079ZM114.891 47.3335C115.394 47.3335 115.835 47.2944 116.216 47.2163C116.597 47.1333 116.917 46.9966 117.176 46.8062C117.435 46.6108 117.63 46.3545 117.762 46.0371C117.894 45.7148 117.962 45.3145 117.967 44.8359L118.816 44.9824L118.743 46.8867C118.45 47.1406 118.14 47.3506 117.813 47.5166C117.491 47.6826 117.159 47.8145 116.817 47.9121C116.48 48.0098 116.136 48.0781 115.784 48.1172C115.438 48.1562 115.093 48.1758 114.751 48.1758C113.96 48.1758 113.265 48.0586 112.664 47.8242C112.068 47.5898 111.568 47.2603 111.163 46.8354C110.757 46.4058 110.452 45.8906 110.247 45.29C110.042 44.6895 109.939 44.0229 109.939 43.2905C109.939 42.5435 110.057 41.8696 110.291 41.269C110.525 40.6636 110.855 40.146 111.28 39.7163C111.705 39.2866 112.212 38.957 112.803 38.7275C113.399 38.4932 114.058 38.376 114.781 38.376C115.333 38.376 115.853 38.4639 116.341 38.6396C116.829 38.8154 117.254 39.062 117.615 39.3794L117.696 38.6543H118.611V41.2837L117.762 41.269C117.732 40.9321 117.642 40.6343 117.491 40.3755C117.344 40.1167 117.146 39.9019 116.897 39.731C116.653 39.5552 116.36 39.4233 116.019 39.3354C115.682 39.2476 115.306 39.2036 114.891 39.2036C114.354 39.2036 113.868 39.2988 113.433 39.4893C113.003 39.6797 112.635 39.9507 112.327 40.3022C112.024 40.6538 111.79 41.0811 111.624 41.584C111.458 42.082 111.375 42.6411 111.375 43.2612C111.375 43.8911 111.458 44.4575 111.624 44.9604C111.79 45.4634 112.024 45.8906 112.327 46.2422C112.635 46.5938 113.003 46.8647 113.433 47.0552C113.868 47.2407 114.354 47.3335 114.891 47.3335ZM119.944 38.5518C120.174 38.5615 120.374 38.5688 120.545 38.5737C120.716 38.5737 120.887 38.5737 121.058 38.5737C121.487 38.5737 121.849 38.5737 122.142 38.5737C122.439 38.5688 122.688 38.5664 122.889 38.5664C123.094 38.5615 123.262 38.5591 123.394 38.5591C123.531 38.5542 123.658 38.5518 123.775 38.5518V39.2769H123.416C123.196 39.2769 123.025 39.2891 122.903 39.3135C122.781 39.3379 122.691 39.3745 122.632 39.4233C122.579 39.4673 122.547 39.521 122.537 39.5845C122.527 39.6479 122.522 39.7163 122.522 39.7896V46.8135C122.522 46.9062 122.527 46.9819 122.537 47.0405C122.547 47.0991 122.579 47.1455 122.632 47.1797C122.686 47.2139 122.774 47.2383 122.896 47.2529C123.018 47.2676 123.191 47.2749 123.416 47.2749H123.775V48C123.624 48 123.477 48 123.335 48C123.199 47.9951 123.055 47.9927 122.903 47.9927C122.757 47.9927 122.598 47.9927 122.427 47.9927C122.256 47.9878 122.063 47.9854 121.849 47.9854C121.458 47.9854 121.114 47.9878 120.816 47.9927C120.523 47.9976 120.232 48 119.944 48V47.2749H120.296C120.521 47.2749 120.691 47.2627 120.809 47.2383C120.931 47.2139 121.019 47.1797 121.072 47.1357C121.131 47.0869 121.165 47.0308 121.175 46.9673C121.185 46.9038 121.189 46.8354 121.189 46.7622V39.8408C121.189 39.7334 121.182 39.6431 121.167 39.5698C121.158 39.4966 121.124 39.438 121.065 39.394C121.011 39.3501 120.923 39.3208 120.801 39.3062C120.684 39.2866 120.516 39.2769 120.296 39.2769H119.944V38.5518ZM132.491 38.5664V40.9541H131.663V40.6025C131.663 40.2998 131.651 40.0679 131.626 39.9067C131.607 39.7407 131.575 39.6211 131.531 39.5479C131.487 39.4697 131.431 39.4258 131.363 39.416C131.299 39.4014 131.224 39.394 131.136 39.394H127.247V42.7778H129.773C129.822 42.7778 129.864 42.7754 129.898 42.7705C129.932 42.7607 129.961 42.7339 129.986 42.6899C130.01 42.6411 130.03 42.563 130.044 42.4556C130.064 42.3481 130.081 42.1919 130.096 41.9868H130.682V44.3452H130.096C130.081 44.145 130.064 43.9912 130.044 43.8838C130.025 43.7715 130 43.6909 129.971 43.6421C129.942 43.5884 129.908 43.5566 129.869 43.5469C129.83 43.5371 129.783 43.5322 129.729 43.5322H127.247V47.1797H131.202C131.314 47.1797 131.402 47.1577 131.465 47.1138C131.534 47.0649 131.583 46.9771 131.612 46.8501C131.646 46.7231 131.668 46.5474 131.678 46.3228C131.688 46.0981 131.692 45.8076 131.692 45.4512H132.513V48H124.595V47.2749H125.438C125.555 47.2749 125.645 47.2578 125.708 47.2236C125.772 47.1895 125.818 47.1431 125.848 47.0845C125.877 47.0259 125.894 46.9624 125.899 46.894C125.904 46.8208 125.906 46.7476 125.906 46.6743V39.9727C125.906 39.8555 125.904 39.7554 125.899 39.6724C125.899 39.5845 125.884 39.5112 125.855 39.4526C125.831 39.394 125.784 39.3501 125.716 39.3208C125.652 39.2915 125.56 39.2769 125.438 39.2769H124.654V38.5664H132.491ZM133.509 38.5518C133.509 38.5518 133.538 38.5518 133.597 38.5518C133.655 38.5518 133.731 38.5518 133.824 38.5518C133.917 38.5518 134.017 38.5518 134.124 38.5518C134.236 38.5518 134.344 38.5542 134.446 38.5591C134.549 38.5591 134.642 38.5591 134.725 38.5591C134.808 38.5591 134.866 38.5591 134.9 38.5591C134.998 38.5591 135.108 38.5591 135.23 38.5591C135.352 38.5591 135.477 38.5591 135.604 38.5591C135.735 38.5542 135.865 38.5518 135.992 38.5518C136.119 38.5518 136.233 38.5518 136.336 38.5518L141.214 46.6304H141.229V39.8042C141.229 39.6772 141.214 39.5796 141.185 39.5112C141.155 39.438 141.106 39.3843 141.038 39.3501C140.97 39.3159 140.875 39.2964 140.752 39.2915C140.635 39.2817 140.486 39.2769 140.306 39.2769H139.925V38.5518C140.311 38.5518 140.635 38.5566 140.899 38.5664C141.163 38.5713 141.402 38.5737 141.617 38.5737C141.641 38.5737 141.688 38.5737 141.756 38.5737C141.824 38.5737 141.902 38.5737 141.99 38.5737C142.083 38.5737 142.183 38.5737 142.291 38.5737C142.403 38.5688 142.513 38.5664 142.62 38.5664C142.874 38.5615 143.155 38.5566 143.462 38.5518V39.2769H143.001C142.811 39.2769 142.662 39.2891 142.554 39.3135C142.452 39.333 142.376 39.3647 142.327 39.4087C142.278 39.4526 142.249 39.5063 142.239 39.5698C142.229 39.6333 142.225 39.7065 142.225 39.7896C142.225 39.7896 142.225 39.8433 142.225 39.9507C142.225 40.0532 142.222 40.2021 142.217 40.3975C142.217 40.5879 142.217 40.8174 142.217 41.0859C142.217 41.3545 142.217 41.6475 142.217 41.9648V45.9419C142.217 46.6597 142.22 47.3701 142.225 48.0732H140.804L135.765 39.7676H135.75V46.7183C135.75 46.855 135.762 46.9624 135.787 47.0405C135.816 47.1138 135.865 47.1675 135.933 47.2017C136.001 47.2358 136.094 47.2578 136.211 47.2676C136.333 47.2725 136.49 47.2749 136.68 47.2749H137.076V48C136.944 48 136.817 48 136.695 48C136.573 47.9951 136.446 47.9927 136.314 47.9927C136.187 47.9927 136.05 47.9927 135.904 47.9927C135.757 47.9878 135.591 47.9854 135.406 47.9854C135.206 47.9854 135.02 47.9878 134.849 47.9927C134.683 47.9927 134.522 47.9927 134.366 47.9927C134.214 47.9927 134.063 47.9951 133.912 48C133.765 48 133.616 48 133.465 48V47.2749H133.934C134.139 47.2749 134.297 47.2651 134.41 47.2456C134.522 47.2261 134.603 47.1919 134.651 47.1431C134.705 47.0942 134.734 47.0332 134.739 46.96C134.749 46.8818 134.754 46.7866 134.754 46.6743V39.8774C134.754 39.731 134.744 39.6187 134.725 39.5405C134.705 39.4575 134.666 39.3965 134.607 39.3574C134.554 39.3184 134.473 39.2964 134.366 39.2915C134.263 39.2817 134.126 39.2769 133.956 39.2769H133.501C133.501 39.2329 133.501 39.1792 133.501 39.1157C133.501 39.0522 133.501 38.9863 133.501 38.918C133.506 38.8496 133.509 38.7837 133.509 38.7202C133.509 38.6519 133.509 38.5957 133.509 38.5518ZM149.549 47.3335C150.052 47.3335 150.494 47.2944 150.875 47.2163C151.255 47.1333 151.575 46.9966 151.834 46.8062C152.093 46.6108 152.288 46.3545 152.42 46.0371C152.552 45.7148 152.62 45.3145 152.625 44.8359L153.475 44.9824L153.401 46.8867C153.108 47.1406 152.798 47.3506 152.471 47.5166C152.149 47.6826 151.817 47.8145 151.475 47.9121C151.138 48.0098 150.794 48.0781 150.442 48.1172C150.096 48.1562 149.751 48.1758 149.41 48.1758C148.619 48.1758 147.923 48.0586 147.322 47.8242C146.727 47.5898 146.226 47.2603 145.821 46.8354C145.416 46.4058 145.11 45.8906 144.905 45.29C144.7 44.6895 144.598 44.0229 144.598 43.2905C144.598 42.5435 144.715 41.8696 144.949 41.269C145.184 40.6636 145.513 40.146 145.938 39.7163C146.363 39.2866 146.871 38.957 147.461 38.7275C148.057 38.4932 148.716 38.376 149.439 38.376C149.991 38.376 150.511 38.4639 150.999 38.6396C151.487 38.8154 151.912 39.062 152.273 39.3794L152.354 38.6543H153.27V41.2837L152.42 41.269C152.391 40.9321 152.3 40.6343 152.149 40.3755C152.002 40.1167 151.805 39.9019 151.556 39.731C151.312 39.5552 151.019 39.4233 150.677 39.3354C150.34 39.2476 149.964 39.2036 149.549 39.2036C149.012 39.2036 148.526 39.2988 148.091 39.4893C147.662 39.6797 147.293 39.9507 146.985 40.3022C146.683 40.6538 146.448 41.0811 146.282 41.584C146.116 42.082 146.033 42.6411 146.033 43.2612C146.033 43.8911 146.116 44.4575 146.282 44.9604C146.448 45.4634 146.683 45.8906 146.985 46.2422C147.293 46.5938 147.662 46.8647 148.091 47.0552C148.526 47.2407 149.012 47.3335 149.549 47.3335ZM162.344 38.5664V40.9541H161.517V40.6025C161.517 40.2998 161.504 40.0679 161.48 39.9067C161.46 39.7407 161.429 39.6211 161.385 39.5479C161.341 39.4697 161.285 39.4258 161.216 39.416C161.153 39.4014 161.077 39.394 160.989 39.394H157.1V42.7778H159.627C159.676 42.7778 159.717 42.7754 159.751 42.7705C159.786 42.7607 159.815 42.7339 159.839 42.6899C159.864 42.6411 159.883 42.563 159.898 42.4556C159.917 42.3481 159.935 42.1919 159.949 41.9868H160.535V44.3452H159.949C159.935 44.145 159.917 43.9912 159.898 43.8838C159.878 43.7715 159.854 43.6909 159.825 43.6421C159.795 43.5884 159.761 43.5566 159.722 43.5469C159.683 43.5371 159.637 43.5322 159.583 43.5322H157.1V47.1797H161.055C161.167 47.1797 161.255 47.1577 161.319 47.1138C161.387 47.0649 161.436 46.9771 161.465 46.8501C161.5 46.7231 161.521 46.5474 161.531 46.3228C161.541 46.0981 161.546 45.8076 161.546 45.4512H162.366V48H154.449V47.2749H155.291C155.408 47.2749 155.499 47.2578 155.562 47.2236C155.625 47.1895 155.672 47.1431 155.701 47.0845C155.73 47.0259 155.748 46.9624 155.752 46.894C155.757 46.8208 155.76 46.7476 155.76 46.6743V39.9727C155.76 39.8555 155.757 39.7554 155.752 39.6724C155.752 39.5845 155.738 39.5112 155.708 39.4526C155.684 39.394 155.638 39.3501 155.569 39.3208C155.506 39.2915 155.413 39.2769 155.291 39.2769H154.507V38.5664H162.344ZM175.931 39.7529V41.4448H177.688V42.1406H175.945V45.7661C175.945 46.0151 175.948 46.2397 175.953 46.4399C175.958 46.6353 175.979 46.8037 176.019 46.9453C176.062 47.0869 176.131 47.1968 176.224 47.2749C176.316 47.3481 176.448 47.3848 176.619 47.3848C176.692 47.3848 176.761 47.3726 176.824 47.3481C176.893 47.3188 176.951 47.2725 177 47.209C177.054 47.1455 177.095 47.0649 177.125 46.9673C177.159 46.8647 177.176 46.7402 177.176 46.5938L177.85 46.5278C177.85 46.8159 177.808 47.0625 177.725 47.2676C177.647 47.4727 177.54 47.6436 177.403 47.7803C177.266 47.9121 177.107 48.0098 176.927 48.0732C176.746 48.1367 176.556 48.1685 176.355 48.1685C175.975 48.1685 175.672 48.1025 175.447 47.9707C175.223 47.834 175.054 47.6411 174.942 47.3921C174.415 47.646 173.875 47.8364 173.323 47.9634C172.776 48.0854 172.237 48.1465 171.705 48.1465C171.065 48.1465 170.501 48.0537 170.013 47.8682C169.524 47.6826 169.112 47.436 168.775 47.1284C168.443 46.8159 168.191 46.4595 168.021 46.0591C167.85 45.6587 167.764 45.2437 167.764 44.814C167.764 44.5259 167.803 44.2378 167.881 43.9497C167.964 43.6567 168.086 43.3735 168.248 43.1001C168.409 42.8218 168.611 42.5605 168.855 42.3164C169.104 42.0674 169.395 41.8428 169.727 41.6426C169.566 41.3984 169.446 41.1592 169.368 40.9248C169.295 40.6855 169.258 40.4512 169.258 40.2217C169.258 39.9092 169.327 39.6162 169.463 39.3428C169.6 39.0693 169.795 38.8301 170.049 38.625C170.303 38.4199 170.611 38.2588 170.972 38.1416C171.333 38.0244 171.739 37.9658 172.188 37.9658C172.647 37.9658 173.06 38.0098 173.426 38.0977C173.797 38.1855 174.124 38.3003 174.407 38.4419L174.502 39.7603L173.836 39.8335C173.821 39.6284 173.772 39.4526 173.689 39.3062C173.606 39.1597 173.497 39.04 173.36 38.9473C173.223 38.8496 173.067 38.7788 172.891 38.7349C172.72 38.6909 172.54 38.6689 172.349 38.6689C172.002 38.6689 171.697 38.7129 171.434 38.8008C171.175 38.8838 170.958 39.001 170.782 39.1523C170.606 39.3037 170.472 39.4819 170.379 39.687C170.291 39.8872 170.247 40.1069 170.247 40.3462C170.247 40.6929 170.34 41.0591 170.525 41.4448H174.847C174.847 41.4204 174.849 41.3789 174.854 41.3203C174.859 41.2617 174.864 41.1958 174.869 41.1226C174.878 41.0444 174.886 40.9614 174.891 40.8735C174.9 40.7808 174.91 40.6904 174.92 40.6025C174.939 40.3975 174.961 40.1704 174.986 39.9214L175.931 39.7529ZM170.459 42.1406C170.201 42.3018 169.976 42.4849 169.786 42.6899C169.595 42.895 169.437 43.1123 169.31 43.3418C169.183 43.5664 169.087 43.8008 169.024 44.0449C168.96 44.2842 168.929 44.5234 168.929 44.7627C168.929 45.0996 168.99 45.4219 169.112 45.7295C169.234 46.0371 169.417 46.3105 169.661 46.5498C169.91 46.7891 170.218 46.9795 170.584 47.1211C170.95 47.2627 171.375 47.3335 171.858 47.3335C172.293 47.3335 172.752 47.2749 173.235 47.1577C173.724 47.0405 174.227 46.855 174.744 46.6011C174.734 46.4839 174.727 46.3545 174.722 46.2129C174.717 46.0713 174.715 45.9297 174.715 45.7881V42.1406H170.459ZM89.5928 56.5518C89.5928 56.5518 89.6489 56.5542 89.7612 56.5591C89.8784 56.5591 90.0273 56.5591 90.208 56.5591C90.3936 56.5591 90.5986 56.5615 90.8232 56.5664C91.0479 56.5664 91.2676 56.5664 91.4824 56.5664C91.7021 56.5664 91.9023 56.5664 92.083 56.5664C92.2686 56.5664 92.415 56.5664 92.5225 56.5664H95.3496C95.5156 56.5664 95.7085 56.5664 95.9282 56.5664C96.1528 56.5615 96.3799 56.5591 96.6094 56.5591C96.8389 56.5591 97.061 56.5591 97.2759 56.5591C97.4956 56.5542 97.6885 56.5518 97.8545 56.5518V59.3789H97.0781V57.8701C97.0781 57.7676 97.0708 57.6846 97.0562 57.6211C97.0415 57.5576 96.9951 57.5088 96.917 57.4746C96.8438 57.4404 96.7266 57.4185 96.5654 57.4087C96.4043 57.394 96.1772 57.3867 95.8843 57.3867H94.4048V64.8501C94.4048 64.9331 94.4097 65.0015 94.4194 65.0552C94.4292 65.1089 94.4634 65.1528 94.522 65.187C94.5806 65.2163 94.6709 65.2383 94.793 65.2529C94.915 65.2676 95.0884 65.2749 95.313 65.2749H95.7231V66C95.5815 66 95.4424 66 95.3057 66C95.1689 66 95.0249 66 94.8735 66C94.7271 66 94.5684 66 94.3975 66C94.2314 65.9951 94.0459 65.9902 93.8408 65.9854C93.8213 65.9854 93.7676 65.9854 93.6797 65.9854C93.5918 65.9854 93.4844 65.9878 93.3574 65.9927C93.2354 65.9927 93.0986 65.9927 92.9473 65.9927C92.8008 65.9927 92.6519 65.9951 92.5005 66C92.354 66 92.2148 66 92.083 66C91.9512 66 91.8413 66 91.7534 66V65.2749H92.1562C92.3857 65.2749 92.5615 65.2627 92.6836 65.2383C92.8105 65.209 92.9009 65.1724 92.9546 65.1284C93.0132 65.0796 93.0474 65.0259 93.0571 64.9673C93.0669 64.9038 93.0718 64.8379 93.0718 64.7695V57.3867H91.4824C91.209 57.3867 90.9966 57.3965 90.8452 57.416C90.6938 57.4307 90.5815 57.4551 90.5083 57.4893C90.4351 57.5186 90.3911 57.5601 90.3765 57.6138C90.3618 57.6626 90.3545 57.7212 90.3545 57.7896C90.3545 57.9019 90.3545 58.0264 90.3545 58.1631C90.3545 58.2949 90.3545 58.4316 90.3545 58.5732C90.3594 58.7148 90.3618 58.8564 90.3618 58.998C90.3618 59.1348 90.3618 59.2617 90.3618 59.3789H89.5928V56.5518ZM106.438 56.5664V58.9541H105.611V58.6025C105.611 58.2998 105.599 58.0679 105.574 57.9067C105.555 57.7407 105.523 57.6211 105.479 57.5479C105.435 57.4697 105.379 57.4258 105.311 57.416C105.247 57.4014 105.171 57.394 105.083 57.394H101.194V60.7778H103.721C103.77 60.7778 103.812 60.7754 103.846 60.7705C103.88 60.7607 103.909 60.7339 103.934 60.6899C103.958 60.6411 103.978 60.563 103.992 60.4556C104.012 60.3481 104.029 60.1919 104.043 59.9868H104.629V62.3452H104.043C104.029 62.145 104.012 61.9912 103.992 61.8838C103.973 61.7715 103.948 61.6909 103.919 61.6421C103.89 61.5884 103.855 61.5566 103.816 61.5469C103.777 61.5371 103.731 61.5322 103.677 61.5322H101.194V65.1797H105.149C105.262 65.1797 105.35 65.1577 105.413 65.1138C105.481 65.0649 105.53 64.9771 105.56 64.8501C105.594 64.7231 105.616 64.5474 105.625 64.3228C105.635 64.0981 105.64 63.8076 105.64 63.4512H106.46V66H98.543V65.2749H99.3853C99.5024 65.2749 99.5928 65.2578 99.6562 65.2236C99.7197 65.1895 99.7661 65.1431 99.7954 65.0845C99.8247 65.0259 99.8418 64.9624 99.8467 64.894C99.8516 64.8208 99.854 64.7476 99.854 64.6743V57.9727C99.854 57.8555 99.8516 57.7554 99.8467 57.6724C99.8467 57.5845 99.832 57.5112 99.8027 57.4526C99.7783 57.394 99.7319 57.3501 99.6636 57.3208C99.6001 57.2915 99.5073 57.2769 99.3853 57.2769H98.6016V56.5664H106.438ZM112.935 65.3335C113.438 65.3335 113.88 65.2944 114.261 65.2163C114.642 65.1333 114.961 64.9966 115.22 64.8062C115.479 64.6108 115.674 64.3545 115.806 64.0371C115.938 63.7148 116.006 63.3145 116.011 62.8359L116.861 62.9824L116.788 64.8867C116.495 65.1406 116.185 65.3506 115.857 65.5166C115.535 65.6826 115.203 65.8145 114.861 65.9121C114.524 66.0098 114.18 66.0781 113.829 66.1172C113.482 66.1562 113.138 66.1758 112.796 66.1758C112.005 66.1758 111.309 66.0586 110.708 65.8242C110.113 65.5898 109.612 65.2603 109.207 64.8354C108.802 64.4058 108.497 63.8906 108.292 63.29C108.086 62.6895 107.984 62.0229 107.984 61.2905C107.984 60.5435 108.101 59.8696 108.335 59.269C108.57 58.6636 108.899 58.146 109.324 57.7163C109.749 57.2866 110.257 56.957 110.848 56.7275C111.443 56.4932 112.103 56.376 112.825 56.376C113.377 56.376 113.897 56.4639 114.385 56.6396C114.874 56.8154 115.298 57.062 115.66 57.3794L115.74 56.6543H116.656V59.2837L115.806 59.269C115.777 58.9321 115.687 58.6343 115.535 58.3755C115.389 58.1167 115.191 57.9019 114.942 57.731C114.698 57.5552 114.405 57.4233 114.063 57.3354C113.726 57.2476 113.35 57.2036 112.935 57.2036C112.398 57.2036 111.912 57.2988 111.478 57.4893C111.048 57.6797 110.679 57.9507 110.372 58.3022C110.069 58.6538 109.834 59.0811 109.668 59.584C109.502 60.082 109.419 60.6411 109.419 61.2612C109.419 61.8911 109.502 62.4575 109.668 62.9604C109.834 63.4634 110.069 63.8906 110.372 64.2422C110.679 64.5938 111.048 64.8647 111.478 65.0552C111.912 65.2407 112.398 65.3335 112.935 65.3335ZM117.93 56.5518C118.091 56.5518 118.262 56.5542 118.443 56.5591C118.624 56.5591 118.809 56.5591 119 56.5591C119.19 56.5591 119.38 56.5615 119.571 56.5664C119.761 56.5664 119.944 56.5664 120.12 56.5664C120.14 56.5664 120.215 56.5664 120.347 56.5664C120.479 56.5615 120.63 56.5591 120.801 56.5591C120.972 56.5591 121.143 56.5591 121.314 56.5591C121.49 56.5542 121.631 56.5518 121.739 56.5518V57.2769H121.387C121.163 57.2769 120.989 57.2866 120.867 57.3062C120.75 57.3208 120.662 57.3501 120.604 57.394C120.55 57.4331 120.518 57.4868 120.508 57.5552C120.499 57.6235 120.494 57.709 120.494 57.8115V60.6899H125.394V57.7529C125.394 57.6357 125.379 57.5454 125.35 57.4819C125.325 57.4136 125.276 57.3647 125.203 57.3354C125.135 57.3062 125.042 57.2891 124.925 57.2842C124.812 57.2793 124.668 57.2769 124.493 57.2769H124.141V56.5518C124.498 56.5615 124.849 56.5664 125.196 56.5664C125.542 56.5664 125.872 56.5664 126.185 56.5664C126.204 56.5664 126.285 56.5664 126.426 56.5664C126.568 56.5615 126.731 56.5591 126.917 56.5591C127.107 56.5591 127.298 56.5591 127.488 56.5591C127.684 56.5542 127.84 56.5518 127.957 56.5518V57.2769H127.613C127.393 57.2769 127.222 57.2866 127.1 57.3062C126.983 57.3208 126.895 57.3477 126.836 57.3867C126.783 57.4258 126.751 57.4746 126.741 57.5332C126.731 57.5918 126.727 57.665 126.727 57.7529V64.6597C126.727 64.6987 126.724 64.7378 126.719 64.7769C126.719 64.811 126.719 64.8452 126.719 64.8794C126.719 64.9478 126.727 65.0063 126.741 65.0552C126.761 65.104 126.8 65.1455 126.858 65.1797C126.922 65.2139 127.012 65.2383 127.129 65.2529C127.247 65.2676 127.408 65.2749 127.613 65.2749H127.957V66C127.796 66 127.637 66 127.481 66C127.325 65.9951 127.164 65.9927 126.998 65.9927C126.836 65.9927 126.666 65.9927 126.485 65.9927C126.304 65.9878 126.104 65.9854 125.884 65.9854C125.699 65.9854 125.528 65.9878 125.372 65.9927C125.215 65.9927 125.066 65.9927 124.925 65.9927C124.788 65.9927 124.656 65.9951 124.529 66C124.402 66 124.273 66 124.141 66V65.2749H124.493C124.712 65.2749 124.883 65.2627 125.005 65.2383C125.127 65.209 125.218 65.1699 125.276 65.1211C125.335 65.0674 125.369 65.0063 125.379 64.938C125.389 64.8647 125.394 64.7817 125.394 64.689V61.4736H120.494V64.7329C120.494 64.8745 120.506 64.9819 120.53 65.0552C120.555 65.1284 120.599 65.1821 120.662 65.2163C120.73 65.2505 120.823 65.27 120.94 65.2749C121.058 65.2749 121.207 65.2749 121.387 65.2749H121.739V66C121.602 66 121.47 66 121.343 66C121.216 65.9951 121.084 65.9927 120.948 65.9927C120.816 65.9927 120.672 65.9927 120.516 65.9927C120.359 65.9878 120.186 65.9854 119.996 65.9854C119.776 65.9854 119.573 65.9878 119.388 65.9927C119.207 65.9927 119.036 65.9927 118.875 65.9927C118.714 65.9927 118.555 65.9951 118.399 66C118.248 66 118.091 66 117.93 66V65.2749H118.274C118.494 65.2749 118.665 65.2603 118.787 65.231C118.909 65.2017 118.997 65.1626 119.051 65.1138C119.104 65.0601 119.136 64.999 119.146 64.9307C119.156 64.8623 119.161 64.7866 119.161 64.7036V57.731C119.161 57.6479 119.156 57.5771 119.146 57.5186C119.136 57.46 119.102 57.4136 119.043 57.3794C118.99 57.3403 118.902 57.3135 118.78 57.2988C118.663 57.2842 118.494 57.2769 118.274 57.2769H117.93V56.5518ZM128.726 56.5518C128.726 56.5518 128.755 56.5518 128.814 56.5518C128.873 56.5518 128.948 56.5518 129.041 56.5518C129.134 56.5518 129.234 56.5518 129.341 56.5518C129.454 56.5518 129.561 56.5542 129.664 56.5591C129.766 56.5591 129.859 56.5591 129.942 56.5591C130.025 56.5591 130.083 56.5591 130.118 56.5591C130.215 56.5591 130.325 56.5591 130.447 56.5591C130.569 56.5591 130.694 56.5591 130.821 56.5591C130.953 56.5542 131.082 56.5518 131.209 56.5518C131.336 56.5518 131.451 56.5518 131.553 56.5518L136.431 64.6304H136.446V57.8042C136.446 57.6772 136.431 57.5796 136.402 57.5112C136.373 57.438 136.324 57.3843 136.255 57.3501C136.187 57.3159 136.092 57.2964 135.97 57.2915C135.853 57.2817 135.704 57.2769 135.523 57.2769H135.142V56.5518C135.528 56.5518 135.853 56.5566 136.116 56.5664C136.38 56.5713 136.619 56.5737 136.834 56.5737C136.858 56.5737 136.905 56.5737 136.973 56.5737C137.042 56.5737 137.12 56.5737 137.208 56.5737C137.3 56.5737 137.4 56.5737 137.508 56.5737C137.62 56.5688 137.73 56.5664 137.837 56.5664C138.091 56.5615 138.372 56.5566 138.68 56.5518V57.2769H138.218C138.028 57.2769 137.879 57.2891 137.771 57.3135C137.669 57.333 137.593 57.3647 137.544 57.4087C137.496 57.4526 137.466 57.5063 137.457 57.5698C137.447 57.6333 137.442 57.7065 137.442 57.7896C137.442 57.7896 137.442 57.8433 137.442 57.9507C137.442 58.0532 137.439 58.2021 137.435 58.3975C137.435 58.5879 137.435 58.8174 137.435 59.0859C137.435 59.3545 137.435 59.6475 137.435 59.9648V63.9419C137.435 64.6597 137.437 65.3701 137.442 66.0732H136.021L130.982 57.7676H130.967V64.7183C130.967 64.855 130.979 64.9624 131.004 65.0405C131.033 65.1138 131.082 65.1675 131.15 65.2017C131.219 65.2358 131.312 65.2578 131.429 65.2676C131.551 65.2725 131.707 65.2749 131.897 65.2749H132.293V66C132.161 66 132.034 66 131.912 66C131.79 65.9951 131.663 65.9927 131.531 65.9927C131.404 65.9927 131.268 65.9927 131.121 65.9927C130.975 65.9878 130.809 65.9854 130.623 65.9854C130.423 65.9854 130.237 65.9878 130.066 65.9927C129.9 65.9927 129.739 65.9927 129.583 65.9927C129.432 65.9927 129.28 65.9951 129.129 66C128.982 66 128.833 66 128.682 66V65.2749H129.151C129.356 65.2749 129.515 65.2651 129.627 65.2456C129.739 65.2261 129.82 65.1919 129.869 65.1431C129.922 65.0942 129.952 65.0332 129.957 64.96C129.966 64.8818 129.971 64.7866 129.971 64.6743V57.8774C129.971 57.731 129.961 57.6187 129.942 57.5405C129.922 57.4575 129.883 57.3965 129.825 57.3574C129.771 57.3184 129.69 57.2964 129.583 57.2915C129.48 57.2817 129.344 57.2769 129.173 57.2769H128.719C128.719 57.2329 128.719 57.1792 128.719 57.1157C128.719 57.0522 128.719 56.9863 128.719 56.918C128.724 56.8496 128.726 56.7837 128.726 56.7202C128.726 56.6519 128.726 56.5957 128.726 56.5518ZM144.568 56.3687C145.306 56.3687 145.972 56.4883 146.568 56.7275C147.168 56.9619 147.676 57.2939 148.091 57.7236C148.511 58.1533 148.833 58.6685 149.058 59.269C149.288 59.8696 149.402 60.5361 149.402 61.2686C149.402 61.9961 149.29 62.6602 149.065 63.2607C148.841 63.8613 148.521 64.3789 148.106 64.8135C147.691 65.2432 147.188 65.5776 146.597 65.8169C146.006 66.0562 145.347 66.1758 144.62 66.1758C143.863 66.1758 143.182 66.0586 142.576 65.8242C141.976 65.5898 141.463 65.2603 141.038 64.8354C140.618 64.4058 140.296 63.8906 140.071 63.29C139.847 62.6846 139.734 62.0107 139.734 61.2686C139.734 60.5361 139.847 59.8696 140.071 59.269C140.296 58.6636 140.616 58.1484 141.031 57.7236C141.451 57.2939 141.958 56.9619 142.554 56.7275C143.155 56.4883 143.826 56.3687 144.568 56.3687ZM144.561 57.1963C144.034 57.1963 143.56 57.2915 143.14 57.4819C142.72 57.6724 142.364 57.9434 142.071 58.2949C141.783 58.6465 141.561 59.0737 141.404 59.5767C141.248 60.0796 141.17 60.6411 141.17 61.2612C141.17 61.8862 141.248 62.4502 141.404 62.9531C141.561 63.4561 141.785 63.8833 142.078 64.2349C142.371 64.5864 142.728 64.8574 143.147 65.0479C143.567 65.2334 144.039 65.3262 144.561 65.3262C145.088 65.3262 145.56 65.2334 145.975 65.0479C146.395 64.8574 146.751 64.5864 147.044 64.2349C147.337 63.8833 147.562 63.4585 147.718 62.9604C147.874 62.4575 147.952 61.8936 147.952 61.2686C147.952 60.6387 147.874 60.0723 147.718 59.5693C147.562 59.0664 147.337 58.6392 147.044 58.2876C146.751 57.936 146.395 57.6675 145.975 57.4819C145.56 57.2915 145.088 57.1963 144.561 57.1963ZM150.567 56.5518C150.894 56.5664 151.255 56.5737 151.651 56.5737C152.125 56.5737 152.591 56.5737 153.05 56.5737C153.514 56.5737 154.004 56.5664 154.522 56.5518V57.2769H154.002C153.802 57.2769 153.648 57.2939 153.541 57.3281C153.433 57.3623 153.353 57.4087 153.299 57.4673C153.25 57.521 153.221 57.5869 153.211 57.665C153.201 57.7383 153.196 57.8164 153.196 57.8994V65.165H156.529C156.646 65.165 156.736 65.1113 156.8 65.0039C156.863 64.8965 156.91 64.7402 156.939 64.5352C156.968 64.3301 156.985 64.0811 156.99 63.7881C156.995 63.4902 156.998 63.1533 156.998 62.7773H157.84V66H150.567V65.2749H150.94C151.17 65.2749 151.346 65.2578 151.468 65.2236C151.595 65.1895 151.685 65.1406 151.739 65.0771C151.797 65.0137 151.832 64.9429 151.841 64.8647C151.851 64.7817 151.856 64.6914 151.856 64.5938V57.98C151.856 57.9409 151.856 57.9019 151.856 57.8628C151.861 57.8237 151.863 57.7847 151.863 57.7456C151.863 57.6724 151.854 57.6064 151.834 57.5479C151.819 57.4893 151.78 57.4404 151.717 57.4014C151.653 57.3623 151.561 57.333 151.438 57.3135C151.316 57.2891 151.15 57.2769 150.94 57.2769H150.567V56.5518ZM163.729 56.3687C164.466 56.3687 165.132 56.4883 165.728 56.7275C166.329 56.9619 166.836 57.2939 167.251 57.7236C167.671 58.1533 167.994 58.6685 168.218 59.269C168.448 59.8696 168.562 60.5361 168.562 61.2686C168.562 61.9961 168.45 62.6602 168.226 63.2607C168.001 63.8613 167.681 64.3789 167.266 64.8135C166.851 65.2432 166.348 65.5776 165.757 65.8169C165.167 66.0562 164.507 66.1758 163.78 66.1758C163.023 66.1758 162.342 66.0586 161.736 65.8242C161.136 65.5898 160.623 65.2603 160.198 64.8354C159.778 64.4058 159.456 63.8906 159.231 63.29C159.007 62.6846 158.895 62.0107 158.895 61.2686C158.895 60.5361 159.007 59.8696 159.231 59.269C159.456 58.6636 159.776 58.1484 160.191 57.7236C160.611 57.2939 161.119 56.9619 161.714 56.7275C162.315 56.4883 162.986 56.3687 163.729 56.3687ZM163.721 57.1963C163.194 57.1963 162.72 57.2915 162.3 57.4819C161.88 57.6724 161.524 57.9434 161.231 58.2949C160.943 58.6465 160.721 59.0737 160.564 59.5767C160.408 60.0796 160.33 60.6411 160.33 61.2612C160.33 61.8862 160.408 62.4502 160.564 62.9531C160.721 63.4561 160.945 63.8833 161.238 64.2349C161.531 64.5864 161.888 64.8574 162.308 65.0479C162.728 65.2334 163.199 65.3262 163.721 65.3262C164.249 65.3262 164.72 65.2334 165.135 65.0479C165.555 64.8574 165.911 64.5864 166.204 64.2349C166.497 63.8833 166.722 63.4585 166.878 62.9604C167.034 62.4575 167.112 61.8936 167.112 61.2686C167.112 60.6387 167.034 60.0723 166.878 59.5693C166.722 59.0664 166.497 58.6392 166.204 58.2876C165.911 57.936 165.555 57.6675 165.135 57.4819C164.72 57.2915 164.249 57.1963 163.721 57.1963ZM178.831 59.2764H177.967C177.923 58.9492 177.828 58.6587 177.681 58.4048C177.535 58.146 177.339 57.9287 177.095 57.7529C176.856 57.5771 176.57 57.4429 176.238 57.3501C175.911 57.2573 175.545 57.2109 175.14 57.2109C174.578 57.2109 174.073 57.3062 173.624 57.4966C173.179 57.6821 172.801 57.9507 172.488 58.3022C172.176 58.6489 171.937 59.0713 171.771 59.5693C171.604 60.0674 171.521 60.6289 171.521 61.2539C171.521 61.8887 171.604 62.4575 171.771 62.9604C171.941 63.4634 172.186 63.8906 172.503 64.2422C172.82 64.5889 173.206 64.855 173.66 65.0405C174.119 65.2261 174.639 65.3188 175.22 65.3188C176.128 65.3188 176.814 65.187 177.278 64.9233C177.742 64.6548 177.974 64.2446 177.974 63.6929V62.7261C177.974 62.6284 177.967 62.5552 177.952 62.5063C177.938 62.4526 177.898 62.4136 177.835 62.3892C177.776 62.3647 177.684 62.3525 177.557 62.3525C177.43 62.3477 177.256 62.3452 177.037 62.3452H176.121V61.5762C176.282 61.5762 176.441 61.5786 176.597 61.5835C176.758 61.5835 176.929 61.5835 177.11 61.5835C177.295 61.5835 177.493 61.5859 177.703 61.5908C177.918 61.5908 178.157 61.5908 178.421 61.5908C178.514 61.5908 178.626 61.5908 178.758 61.5908C178.89 61.5859 179.024 61.5835 179.161 61.5835C179.302 61.5835 179.439 61.5835 179.571 61.5835C179.708 61.5786 179.827 61.5762 179.93 61.5762C179.93 61.5859 179.927 61.6299 179.922 61.708C179.917 61.7812 179.913 61.8643 179.908 61.957C179.908 62.0449 179.905 62.1279 179.9 62.2061C179.896 62.2793 179.893 62.3208 179.893 62.3306C179.673 62.3354 179.502 62.3452 179.38 62.3599C179.258 62.3696 179.168 62.3892 179.109 62.4185C179.051 62.4478 179.014 62.4868 179 62.5356C178.99 62.5796 178.985 62.6406 178.985 62.7188C178.985 62.9824 178.97 63.3022 178.941 63.6782C178.917 64.0493 178.892 64.4326 178.868 64.8281C178.599 65.1016 178.313 65.3262 178.011 65.502C177.713 65.6777 177.408 65.8169 177.095 65.9194C176.788 66.0171 176.478 66.083 176.165 66.1172C175.853 66.1562 175.55 66.1758 175.257 66.1758C174.407 66.1758 173.66 66.061 173.016 65.8315C172.371 65.5972 171.829 65.2676 171.39 64.8428C170.955 64.4131 170.628 63.8979 170.408 63.2974C170.188 62.6919 170.079 62.0181 170.079 61.2759C170.079 60.5532 170.198 59.8916 170.438 59.291C170.677 58.6855 171.009 58.168 171.434 57.7383C171.858 57.3037 172.364 56.9668 172.95 56.7275C173.536 56.4883 174.175 56.3687 174.869 56.3687C175.45 56.3687 175.994 56.4541 176.502 56.625C177.015 56.791 177.461 57.0571 177.842 57.4233L177.916 56.6689H178.831V59.2764ZM180.472 56.5518C180.613 56.5615 180.774 56.5688 180.955 56.5737C181.141 56.5737 181.309 56.5737 181.46 56.5737C181.666 56.5737 181.866 56.5737 182.061 56.5737C182.256 56.5688 182.461 56.5664 182.676 56.5664C182.896 56.5615 183.13 56.5591 183.379 56.5591C183.633 56.5542 183.921 56.5518 184.244 56.5518V57.2769H183.965C183.643 57.2769 183.411 57.2866 183.27 57.3062C183.128 57.3208 183.057 57.377 183.057 57.4746C183.067 57.543 183.101 57.6333 183.16 57.7456C183.218 57.853 183.296 57.9849 183.394 58.1411C183.399 58.1509 183.448 58.2314 183.541 58.3828C183.638 58.5293 183.755 58.7124 183.892 58.9321C184.029 59.1519 184.175 59.3887 184.332 59.6426C184.493 59.8916 184.642 60.126 184.778 60.3457C184.915 60.5654 185.03 60.751 185.123 60.9023C185.215 61.0488 185.264 61.127 185.269 61.1367L187.137 58.1851C187.249 58.0044 187.337 57.8579 187.4 57.7456C187.464 57.6333 187.496 57.543 187.496 57.4746C187.496 57.377 187.405 57.3208 187.225 57.3062C187.049 57.2866 186.756 57.2769 186.346 57.2769V56.5518C186.629 56.5566 186.897 56.5591 187.151 56.5591C187.259 56.5591 187.369 56.5615 187.481 56.5664C187.593 56.5664 187.698 56.5664 187.796 56.5664C187.898 56.5664 187.989 56.5664 188.067 56.5664C188.15 56.5664 188.218 56.5664 188.272 56.5664C188.506 56.5664 188.743 56.5664 188.982 56.5664C189.227 56.5664 189.495 56.5615 189.788 56.5518V57.2769C189.568 57.2769 189.395 57.2817 189.268 57.2915C189.141 57.2964 189.036 57.3184 188.953 57.3574C188.875 57.3916 188.804 57.4478 188.741 57.5259C188.677 57.604 188.599 57.7114 188.506 57.8481C188.394 58.0142 188.25 58.229 188.074 58.4927C187.903 58.7515 187.718 59.0322 187.518 59.335C187.322 59.6328 187.125 59.9355 186.924 60.2432C186.724 60.5459 186.541 60.8242 186.375 61.0781C186.214 61.3271 186.08 61.5371 185.972 61.708C185.865 61.874 185.804 61.9668 185.789 61.9863V64.8062C185.789 64.9038 185.796 64.9844 185.811 65.0479C185.831 65.1064 185.872 65.1528 185.936 65.187C185.999 65.2212 186.092 65.2456 186.214 65.2603C186.341 65.27 186.514 65.2749 186.734 65.2749H187.129V66C186.827 66 186.521 66 186.214 66C185.906 66 185.542 65.9951 185.123 65.9854C184.747 65.9854 184.393 65.9878 184.061 65.9927C183.733 65.9976 183.436 66 183.167 66V65.2749H183.555C183.79 65.2749 183.97 65.2651 184.097 65.2456C184.224 65.2212 184.314 65.1895 184.368 65.1504C184.427 65.1064 184.461 65.0576 184.471 65.0039C184.48 64.9502 184.485 64.8892 184.485 64.8208V61.9717C184.476 61.957 184.434 61.8936 184.361 61.7812C184.288 61.6641 184.192 61.5176 184.075 61.3418C183.958 61.1611 183.826 60.9609 183.68 60.7412C183.538 60.5166 183.392 60.2896 183.24 60.0601C183.094 59.8257 182.947 59.5986 182.801 59.3789C182.659 59.1543 182.53 58.9541 182.413 58.7783C182.295 58.5977 182.2 58.4512 182.127 58.3389C182.054 58.2217 182.012 58.1558 182.002 58.1411C181.871 57.9312 181.761 57.77 181.673 57.6577C181.59 57.5405 181.5 57.4551 181.402 57.4014C181.304 57.3428 181.185 57.3086 181.043 57.2988C180.906 57.2842 180.718 57.2769 180.479 57.2769C180.479 57.1548 180.479 57.0327 180.479 56.9106C180.474 56.7886 180.472 56.6689 180.472 56.5518Z" fill="black"/>
</svg>
